<?xml version="1.0" encoding="utf-8"?>
<!-- Generator: Adobe Illustrator 26.1.0, SVG Export Plug-In . SVG Version: 6.00 Build 0)  -->
<svg version="1.1" id="Layer_1" xmlns="http://www.w3.org/2000/svg" xmlns:xlink="http://www.w3.org/1999/xlink" x="0px" y="0px"
	 viewBox="0 0 1017.34 768.3" style="enable-background:new 0 0 1017.34 768.3;" xml:space="preserve">
<style type="text/css">
	.st0{fill:#FBFCFD;}
	.st1{fill:#242425;}
	.st2{fill:#DEB097;}
	.st3{fill:#D2A186;}
	.st4{fill:#FEF5F5;}
	.st5{fill:#48494B;}
	.st6{fill:#505798;}
	.st7{opacity:0.2;}
	.st8{opacity:0.2;enable-background:new    ;}
	.st9{fill:#FFFFFF;}
	.st10{fill:#868AC3;}
	.st11{fill-rule:evenodd;clip-rule:evenodd;fill:#F6F7FA;}
	.st12{fill:none;stroke:#505798;stroke-width:0.9613;stroke-dasharray:1.9225,1.9225;}
	.st13{fill:#31377C;}
</style>
<path class="st0" d="M364.12,202.19l35.02,60.15c-87.7,155.15-30.14,356.61,128.29,449.52c158.42,93.18,358.08,42.73,445.5-112.45
	c87.7-155.15,30.14-356.61-128.29-449.52c-138.19-81.1-311.05-54.48-411.6,63.63L364.12,202.19z"/>
<path class="st1" d="M364.11,202.19c4.08,0.78,24.25,3.85,69.22,10.54l-0.55-0.03c14.05-16.66,29.97-31.84,47.23-45.31
	c10.85-8.38,21.96-15.93,33.86-22.61c6.1-3.74,13-6.62,19.91-10.04c6.92-3.7,14.11-7.1,21.27-9.69c7.44-2.85,15.16-5.68,23.17-8.76
	l25.03-6.47l6.6-1.8c2.2-0.42,4.39-0.57,6.59-0.99c4.39-0.57,9.06-1.39,13.44-1.96c4.39-0.84,9.06-1.66,13.72-1.94l14.24-0.82
	C746,97.54,833.9,128.53,901.48,188.1l6.97,5.86l6.41,6.92l13.09,13.58l3.21,3.46l2.92,3.72l5.85,7.43l11.97,14.88l10.3,16.15
	c3.71,5.4,7.14,10.78,10.29,16.69l9.18,17.45l4.73,8.73c1.3,3.08,2.6,6.15,3.62,9.21l7.52,18.45c1.3,3.08,2.32,6.14,3.34,9.47
	l2.79,9.71c1.76,6.65,4.09,12.79,5.31,19.41l3.65,20.13c0.75,3.32,1.22,6.62,1.96,9.94l0.87,10.15l1.73,20.57
	c-0.15,6.54-0.3,13.63-0.19,20.73l-0.23,10.35c-0.08,3.55-0.69,6.51-0.78,10.33l-2.1,20.62c-0.97,6.49-2.76,13.48-4.01,20.51
	c-2.77,13.76-6.63,27.18-11.29,40.29c-2.33,6.42-5.21,13.07-8.09,19.46l-4.05,9.87c-1.44,3.19-3.15,6.37-4.86,9.27l-9.99,18.8
	c-3.7,6.34-7.92,11.83-11.89,17.88l-5.94,8.94c-1.98,2.89-4.5,5.47-6.75,8.34l-13.49,16.15c-5.04,5.17-10.07,10.07-15.1,14.96
	l-7.55,7.48c-2.51,2.31-5.57,4.32-8.08,6.63l-16.43,12.97c-5.56,4.05-11.65,7.51-17.48,11.27c-11.65,7.52-23.83,13.91-36.26,19.74
	c-6.08,2.93-12.43,5.56-19.04,7.64c-6.34,2.36-12.68,4.73-19.3,7.08l-19.8,5.14l-9.9,2.43c-3.3,0.63-6.59,0.99-9.88,1.61
	l-20.03,2.94c-6.58,0.98-13.42,0.87-19.99,1.3l-9.85,0.53l-4.93,0.26l-5.19-0.3l-19.94-1.15c-6.55-0.38-13.1-1.03-19.64-2.22
	l-19.35-2.75c-6.26-1.45-12.52-2.9-18.76-4.63c-6.26-1.18-12.52-2.9-18.48-5.16c-12.22-3.71-23.88-8.2-35.52-13.23l-17.06-7.53
	c-5.4-3.04-10.8-6.08-16.2-9.12c-41.04-23.38-76.7-54.91-105.12-92.57c-12.74-17.38-24.35-35.79-34.04-55.18
	c-4.16-9.52-8.87-18.8-12.22-28.27c-1.81-4.74-3.61-9.49-5.15-14.22l-4.33-14.17c-18-63.26-17.06-129.8,2.92-191.42
	c7.03-20.88,15.68-40.85,26.5-59.88l-0.01,0.55L364.11,202.19l35.57,59.91l-0.01,0.27c-10.54,19.04-19.19,39.01-25.68,59.93
	c-19.41,61.11-20.08,127.39-2.07,190.11l4.34,13.9c1.53,4.73,3.35,9.2,5.16,13.94c3.34,9.47,8.06,18.48,12.22,28
	c9.69,19.12,21.04,37.24,33.78,54.62c28.15,37.37,63.81,68.63,104.59,91.72c5.4,3.04,10.53,6.06,15.94,8.83
	c5.4,3.04,11.37,5.02,17.06,7.53c11.37,5.02,23.3,9.53,35.25,13.22c5.97,2.25,11.94,3.96,18.2,5.41c6.26,1.45,12.52,2.9,18.77,4.36
	c6.26,1.45,12.81,1.83,19.08,2.73c6.26,1.18,12.81,1.83,19.37,1.93l24.58,1.41l4.93-0.26l9.85-0.52c6.57-0.44,13.41-0.32,19.99-1.3
	c6.59-0.99,13.44-1.96,19.76-2.96c3.3-0.63,6.58-0.99,9.88-1.61l9.63-2.45c6.59-1.53,12.93-3.35,19.52-4.88
	c6.61-1.8,12.68-4.73,19.02-6.82c6.61-2.07,12.68-4.73,18.77-7.65c12.43-5.56,24.61-12.23,35.98-19.49
	c5.55-3.78,11.65-7.24,17.21-11.29l16.42-12.7c2.79-2.3,5.56-4.32,8.08-6.63l7.54-7.21c5.03-4.89,10.06-9.79,15.1-14.69l13.76-16.13
	c2.25-2.6,4.49-5.2,6.74-8.07l5.94-8.66c3.96-5.78,8.19-11.54,11.61-17.62l9.99-18.53c1.7-2.9,3.42-6.08,4.86-9.27l4.04-9.59
	c2.61-6.4,5.76-13.04,7.82-19.47c4.39-13.12,8.25-26.55,11.01-40.03c1.24-6.48,3.04-13.47,4.01-20.24l2.1-20.62
	c0.07-3.27,0.97-6.49,0.78-10.32l0.23-10.36c0.15-6.54,0.31-13.63,0.19-20.46l-1.74-20.02l-0.87-10.15l-1.69-9.92l-3.66-19.59
	c-1.49-6.64-3.53-13.03-5.31-19.14l-2.79-9.71c-0.75-3.32-1.77-6.38-3.07-9.46l-7.24-18.43c-1.3-3.08-2.33-6.14-3.63-8.94
	l-4.45-8.72l-8.91-17.16c-2.88-5.62-6.86-11.04-10.3-16.42l-11.12-16.47l-11.97-14.88l-5.85-7.43l-2.92-3.72l-3.2-3.46l-13.1-13.31
	l-6.41-6.65l-6.97-5.86c-67.03-59.26-153.85-89.92-241.17-85.66c-4.93,0.26-9.58,0.54-14.24,0.82c-4.66,0.28-9.06,1.39-13.72,1.94
	l-13.44,1.96l-6.59,0.99l-6.59,1.53c-8.53,2.24-16.78,4.49-25.03,6.47l-22.61,8.52c-7.44,2.57-14.35,6-21.27,9.42
	c-6.64,3.44-13.54,6.32-19.64,10.06c-11.64,6.7-23.02,14.23-33.86,22.34c-17.52,13.18-33.44,28.1-47.76,44.74l-0.27-0.02
	C388.35,206.59,368.19,203.24,364.11,202.19z"/>
<path class="st1" d="M748.11,23.77c8.41-15.11,25.84-24.33,42.91-23.41c17.06,1.2,33.46,12.79,39.95,28.88
	c4.07,9.5,4.99,20.61,11.07,28.95c7.8,10.44,23.6,13.43,34.26,6.82c1.74,11.19-6.14,23.33-16.98,25.79
	c5.62,1.13,11.24,2.25,16.86,3.38c-10.95,19.25-36.87,25.96-58.11,19.65c-21.26-6.04-38.34-22.38-51.72-40.55"/>
<path class="st1" d="M747.76,25.07l50.9,22.6c17.3,14.17,30.31,33.67,35.77,55.42c1.81,7.34,2.79,14.87,5.43,22.02
	c2.38,7.12,6.67,14.17,13.43,17.89c4.94,2.71,10.59,3.57,15.56,6.01c8.36,4.17,14.4,13.04,15.77,22.26
	c1.38,9.22-1.4,19.11-7.22,26.49c-2.79,3.84-6.36,7.32-7.04,11.93c-0.55,3.24,0.53,6.38,1.08,9.47c1.53,10.61-4.38,22.1-14.05,26.61
	c-9.66,4.5-22.26,2.1-29.72-6.1c-3.91,7.3-9.22,15-17.09,17.76c-7.87,2.76-18.66-1.65-19.57-10c-4.47,7.52-14.35,11.44-22.86,8.91
	c-8.5-2.53-14.83-11.16-14.61-19.94L623.91,63.71C650.28,8.39,733.56,22.23,747.76,25.07z"/>
<path class="st2" d="M767.52,83.27c9.18,2.08,15.6,10.76,14.53,20.03l-31.03,242.65c-2.74,28.69-58.06,57.34-88.83,53.26
	c-31.06-3.84-19.22-35.98-17.14-63.36c3.1-45.77,4.58-63,4.56-62.73c0,0-38.73-10.72-42.52-62.74
	c-1.91-25.87,3.05-67.58,8.17-101.54c4.56-30.71,28.27-66.29,58.55-59.78L767.52,83.27z"/>
<path class="st1" d="M627.01,143.59c-0.3,3.53,2.15,6.81,5.68,7.19c3.5,0.65,6.71-1.75,7.29-5.25c0.3-3.53-2.16-6.81-5.68-7.19
	C630.8,137.69,627.58,140.09,627.01,143.59z"/>
<path class="st1" d="M624.13,131.59c0.73,0.89,5.89-2.12,12.89-1.4c7,0.72,11.8,4.74,12.68,4.02c0.3-0.24-0.37-1.94-2.38-3.78
	c-2.01-1.84-5.64-3.84-9.94-4.28c-4.31-0.44-8.22,0.79-10.52,2.19C624.56,129.73,623.63,131,624.13,131.59z"/>
<path class="st1" d="M695.29,150.21c-0.3,3.53,2.16,6.81,5.68,7.19c3.5,0.65,6.71-1.75,7.28-5.25c0.3-3.53-2.16-6.81-5.68-7.19
	C699.07,144.3,695.86,146.7,695.29,150.21z"/>
<path class="st1" d="M692.53,139.61c0.73,0.89,5.89-2.12,12.89-1.4c7,0.72,11.8,4.74,12.68,4.02c0.29-0.24-0.37-1.94-2.38-3.78
	c-2.01-1.84-5.64-3.84-9.94-4.28c-4.31-0.44-8.22,0.79-10.52,2.19C692.97,137.75,692.04,139.01,692.53,139.61z"/>
<path class="st1" d="M662.68,190.04c0.02-0.27-4.28-1.55-11.3-3.39c-1.89-0.47-3.51-0.92-3.66-2.32c-0.43-1.43,0.56-3.26,1.57-5.37
	c2.02-4.21,4.34-8.67,6.66-13.13c9.1-18.95,15.97-34.55,15.17-34.91c-0.8-0.36-8.72,14.57-18.08,33.5
	c-2.34,4.73-4.39,9.22-6.41,13.43c-1.01,2.11-2.29,4.18-1.44,7.04c0.43,1.43,1.7,2.67,2.77,3.05s2.16,0.5,2.96,0.86
	C658.01,189.83,662.65,190.32,662.68,190.04z"/>
<path class="st3" d="M649.65,273.39c0,0,34.06,5.74,69.52-10.99c0,0-19.47,33.13-69.74,22.96L649.65,273.39z"/>
<path class="st3" d="M663.66,207.34c2.71-2.99,7.47-4.4,11.75-3.4c2.95,0.59,6.06,2.56,7.47,5.17c1.68,2.64,1.65,6.19-0.18,8.46
	c-2.13,2.51-6.23,2.62-9.4,1.46c-3.15-1.43-5.94-3.92-8.46-6.37c-0.77-0.63-1.51-1.53-1.71-2.37c-0.47-0.87-0.38-1.96,0.23-2.71"/>
<path class="st1" d="M682.34,197.24c-1.08-0.12-1.73,7.49-8.69,12.22c-6.96,4.74-15.02,3.05-15.11,4.14
	c-0.05,0.54,1.78,1.56,5.01,2.18c3.25,0.35,8.49-0.19,12.55-3.04c4.34-2.82,6.36-7.27,6.88-10.23
	C683.56,199.01,682.91,197.02,682.34,197.24z"/>
<path class="st1" d="M690.42,126.69c0.64,1.97,7.44,1.85,15.72,3.51c8.27,1.66,14.52,4.75,15.74,3.24c0.61-0.75-0.3-2.75-2.85-4.64
	c-2.52-2.16-6.69-4.22-11.49-5.26c-4.79-1.04-9.44-0.7-12.5,0.08C691.98,124.4,690.23,125.85,690.42,126.69z"/>
<path class="st1" d="M628.45,111.2c1.2,1.76,5.93,0.61,11.87,0.95c5.68,0.31,10.68,2.19,11.9,0.68c0.61-0.75-0.06-2.46-2.09-4.03
	c-2.01-1.84-5.42-3.28-9.46-3.7c-4.04-0.42-7.68,0.84-9.71,2.27C628.94,108.81,627.98,110.34,628.45,111.2z"/>
<path class="st2" d="M769.85,165.3c4.04-2.33,9.39-0.66,13.28,1.95c9.06,6.47,12.6,19.53,8.19,29.27
	c-4.43,10.01-16.17,15.67-26.94,13.16"/>
<path class="st1" d="M701.83,34.41c-18.69-1.42-33.24,2.79-50.23,10.04c-16.98,7.25-31.76,20.48-38.44,37.85
	c-1.41,3.69-2.32,7.97-0.44,11.46c2.33,4.63,8.75,6.13,13.8,4.47c5.05-1.66,8.67-5.66,12.27-9.39c1.64,9.49,10.2,17.79,19.95,18.54
	c9.73,1.03,19.28-5.36,22.26-14.63c-0.84,9.77,8.19,18.94,18.24,19.46c9.75,0.76,19.06-5.93,23.09-14.82
	c1.14,8.89,2.26,18.04,6.77,25.92c4.51,7.87,13.55,13.76,22.16,11.93c-1.74,7.49-3.76,15.22-1.69,22.83
	c2.07,7.61,9.42,14.14,16.93,12.47c7.24-1.7,10.66-9.83,12.92-16.99c4.46-13.77,8.37-27.6,9.07-42.05
	c0.7-14.44-1.82-29.5-9.49-41.82c-8.18-12.64-21.31-21.7-35.31-27.01c-14-5.31-29.09-7.45-43.98-8.75"/>
<path class="st3" d="M770.91,195.21c0.3-0.24,1.86,0.75,4.43-0.36c2.54-0.83,5.02-4.16,5.1-8.28c0.1-4.4-2.36-7.69-4.74-8.77
	c-2.36-1.35-4.31-1.01-4.56-1.31c-0.25-0.3,1.77-1.47,5.24-0.27c1.61,0.45,3.42,1.74,4.64,3.52c1.22,1.78,2.1,4.36,1.86,7.09
	c-0.17,5.22-3.84,9.52-7.44,9.96C772.38,197.3,770.61,195.46,770.91,195.21z"/>
<path class="st4" d="M770.56,216.87c3.73,0.38,7.01-2.24,7.33-5.86c0.32-3.62-2.45-6.87-6.18-7.25c-3.73-0.38-7.01,2.24-7.33,5.86
	C764.07,213.25,766.83,216.49,770.56,216.87z"/>
<path class="st4" d="M749.43,21.57c0.02-0.27,3.06-0.78,8.43,0.05c5.13,0.53,12.26,2.91,18.65,7.68
	c6.38,4.77,11.03,10.74,13.35,15.37c2.31,4.63,2.84,7.98,2.57,7.95c-0.29,0.24-1.38-2.89-3.99-7.27
	c-2.61-4.38-7.01-10.05-13.15-14.53c-6.14-4.47-13.01-6.83-17.81-7.87C752.4,21.87,749.38,22.11,749.43,21.57z"/>
<path class="st5" d="M775.62,23.96c0,0,0.05-0.54-0.13-1.66c0.1-1.09,0.51-2.69,1.48-4.52c1.68-3.67,6.68-7.82,14.13-8.98
	c7.45-1.15,16.31,3.33,21.9,11.05c2.93,3.87,5.24,8.51,7.27,13.38c1.75,4.85,3.21,9.94,4.65,15.31c1.46,5.09,3.19,10.22,5.24,14.82
	c2.05,4.61,4.97,8.48,8.22,11.83c3.27,3.08,7.15,5.41,10.88,6.34c4,0.96,7.85,0.54,10.94-0.52c6.47-2.35,10.38-6.62,12.31-9.99
	c1.93-3.37,2.12-5.55,2.39-5.52c0,0-0.05,0.54-0.14,1.63c-0.1,1.09-0.78,2.67-1.46,4.24c-1.68,3.67-5.64,8.48-12.68,11.05
	c-3.38,1.3-7.5,1.7-11.77,0.71c-4.27-0.99-8.42-3.34-11.94-6.72c-3.52-3.38-6.42-7.53-8.71-12.43c-2.32-4.63-4.02-10.03-5.48-15.12
	c-2.9-10.46-5.81-20.65-11.42-28.09c-5.34-7.42-13.4-11.82-20.28-10.88c-6.87,0.66-11.57,4.57-13.49,7.94
	C775.54,21.76,775.89,23.99,775.62,23.96z"/>
<path class="st5" d="M673.4,93.97c0,0-0.22-0.57-0.15-1.39c0.07-0.82-0.35-2.24-0.18-4.14c0.04-3.57,0.5-8.75,2.15-15.18
	c1.63-6.16,4.7-13.26,9.69-20.45c4.96-6.91,11.55-13.66,20.15-18.54c8.61-4.89,17.56-7.54,25.85-8.88
	c8.29-1.34,16.17-1.08,22.34,0.11c6.46,0.94,11.2,2.81,14.62,4.26c1.57,0.71,2.88,1.4,3.64,2.03c0.79,0.36,1.3,0.68,1.28,0.96
	c-0.05,0.54-7.01-4.02-19.68-5.61c-6.19-0.91-13.82-0.88-21.84,0.49c-8.02,1.37-16.97,4.02-25.28,8.66
	c-8.31,4.64-14.87,11.11-19.54,17.78c-4.67,6.67-8.01,13.75-9.89,19.6C673.01,85.96,673.67,94,673.4,93.97z"/>
<path class="st5" d="M705.44,93.67c0,0-0.15-1.39,0.09-4.12c0.22-2.46,1.09-6.22,2.28-10.51c2.68-8.81,8.89-20.57,19.27-29.97
	c10.37-9.4,22.8-14.17,31.67-15.73c4.45-0.92,8.28-1.07,10.74-1.09c2.46-0.02,4.08,0.15,4.08,0.15c-0.03,0.27-5.75,0.23-14.4,2.37
	c-8.65,2.14-20.53,6.97-30.61,16.12c-10.08,9.15-16.25,20.36-19.17,28.87C706.46,88.27,705.71,93.7,705.44,93.67z"/>
<path class="st6" d="M668.79,398.63c-8.05-35.59-32.01-73.36-63.12-63.86c-34.48,10.53-45.26,27.63-65.81,53.39
	c-20.54,25.75-34.69,56.3-48.25,86.36c-5.41,11.86-10.72,25.66-5.19,37.26c4.83,10.15,16.12,15.17,26.67,19.29
	c26.93,10.21,54.47,19.66,82.13,27.74c11.16,3.35,23.45,6.27,33.69,1.53c13.36-6.08,18.56-21.82,22.54-36.03
	c13.67-49.91,27.58-99.51,41.25-149.42"/>
<path class="st6" d="M641.43,321.86l-45.63,14.53c-23.77,15.16-32.62,44.57-34.26,73.07l-45.09,308.82c0,0,120.95,92.9,277.7,25.48
	c3.99-1.79-18.63-75.85-18.63-75.85l54.15-150.97c5.19-22.07,11.09-68.05,7.02-90.54c-10.05-57.86-48.22-78.95-87.96-94.42
	c0,0-43.69,30.17-82.95,18.62C666.05,350.63,642.08,345.92,641.43,321.86z"/>
<g class="st7">
	<g class="st7">
		<g class="st7">
			<path class="st8" d="M559.98,575.64c21.93,39.37,43.86,78.74,66.05,118.14c8.47,15.45,17.46,31.21,31.22,42.27
				c20.16,15.83,49.36,18.6,71.4,6.61c22.31-11.97,35.99-37.74,33.85-63.24c-0.28-3.05-0.83-6.13-2.53-8.51
				c-2.96-3.6-8.04-4.68-12.76-3.8c-4.44,0.91-8.73,3.21-12.97,4.97c-24.89,10.32-54.28,0.4-75.38-17.19
				c-20.83-17.55-35.39-41.32-50.59-64.06c-5.55-8.27-11.89-16.9-20.77-21.39c-9.15-4.53-21.57-2.8-26.4,5.77"/>
		</g>
	</g>
</g>
<path class="st9" d="M701.92,434.74c14.47,1.49,27.24-9.05,28.51-23.54c1.28-14.48-9.42-27.43-23.9-28.91
	c-14.47-1.48-27.24,9.06-28.51,23.54C676.75,420.31,687.45,433.25,701.92,434.74z"/>
<path class="st9" d="M585.28,373.82c-1.28,14.48,9.31,27.42,23.9,28.91c14.32,1.47,27.24-9.06,28.51-23.54
	c1.28-14.48-9.31-27.42-23.9-28.91C599.47,348.81,586.55,359.34,585.28,373.82z"/>
<path class="st9" d="M541.1,625.24c-1.28,14.48,9.31,27.42,23.9,28.91c14.32,1.47,27.24-9.06,28.51-23.54
	c1.28-14.48-9.31-27.42-23.9-28.91C555.02,600.21,542.37,610.77,541.1,625.24z"/>
<path class="st9" d="M604.67,735.11c14.47,1.49,27.24-9.05,28.51-23.54c1.28-14.48-9.42-27.43-23.9-28.91
	c-14.47-1.48-27.24,9.06-28.51,23.54C579.5,720.68,590.2,733.62,604.67,735.11z"/>
<path class="st9" d="M724.75,753.12c14.47,1.49,27.24-9.05,28.52-23.54c1.27-14.48-9.42-27.43-23.9-28.91
	c-14.47-1.48-27.24,9.05-28.52,23.54C699.58,738.69,710.28,751.64,724.75,753.12z"/>
<path class="st9" d="M637.46,580.2c14.47,1.49,27.24-9.05,28.51-23.54c1.28-14.48-9.42-27.43-23.9-28.91
	c-14.47-1.48-27.24,9.06-28.51,23.54C612.29,565.77,622.99,578.71,637.46,580.2z"/>
<path class="st9" d="M619.39,494.41c14.47,1.48,27.24-9.05,28.51-23.54c1.28-14.48-9.42-27.43-23.9-28.91
	c-14.47-1.48-27.24,9.05-28.51,23.54C594.22,479.98,604.92,492.93,619.39,494.41z"/>
<path class="st1" d="M634.61,326.83c0.56-0.22,2.51,8.44,11.99,17.87c4.73,4.85,11.1,9.59,19.21,13.14
	c8.1,3.55,17.67,5.89,27.46,5.79c10.06-0.07,19.5-2.39,27.64-5.38c8.14-2.99,15.01-6.94,20.76-10.45c5.48-3.54,9.85-6.91,12.75-9.08
	c2.93-2.43,4.4-3.65,4.67-3.62c0,0-1.22,1.51-4.18,4.22c-2.66,2.46-7.04,5.84-12.53,9.64c-5.5,3.81-12.63,7.72-20.8,10.99
	s-17.88,5.55-28.23,5.87c-10.32,0.04-20.16-2.32-28.27-5.88c-8.08-3.83-14.72-8.59-19.43-13.71c-4.71-5.12-7.55-9.78-8.86-13.46
	c-0.93-1.73-1.08-3.11-1.55-3.98C634.56,327.37,634.61,326.83,634.61,326.83z"/>
<path class="st6" d="M764.64,338.16c28.72,15.67,58.7,32.57,77.1,59.87c18.62,27.87,22.91,63.37,18.65,96.33
	c-4.52,32.93-16.83,64.23-29.1,94.98c-4.87,11.92-10.97,25.37-23.35,29.33c-10.69,3.31-22.01-1.72-31.95-6.89
	c-25.93-13.17-51.19-27.65-75.87-42.62c-9.87-5.99-20.46-13.16-24.14-24.3c-4.79-14.02,3.08-28.94,10.46-41.43
	c26.3-44.21,52.86-88.39,79.16-132.6"/>
<path class="st9" d="M811.73,531.61c14.48,1.5,27.25-9.02,28.51-23.49c1.27-14.47-9.45-27.42-23.93-28.91
	c-14.48-1.5-27.25,9.01-28.52,23.49C786.53,517.16,797.24,530.11,811.73,531.61z"/>
<path class="st9" d="M738.45,573.32c14.48,1.5,27.25-9.02,28.52-23.49c1.26-14.47-9.45-27.42-23.94-28.91s-27.25,9.02-28.52,23.49
	C713.26,558.88,723.97,571.82,738.45,573.32z"/>
<path class="st9" d="M759.59,417.87c-1.24,14.19,9.11,26.83,23.44,28.31c14.06,1.46,26.68-8.81,27.92-23
	c1.24-14.19-9.11-26.83-23.44-28.31C773.21,393.12,760.86,403.41,759.59,417.87z"/>
<path class="st2" d="M693.18,565.57l-9.01,25.16L560.26,479.77l-35.48-62.2c-4.71-8.46-12.37-14.47-21.66-17.36
	c-9.56-2.92-20.01-1.81-28.61,3.07l-40.17,23.01c0,0-0.7,20.53,8.84,17.4c9.54-3.13,28.81-11.56,28.81-11.56l0.85,49.81l21,18.66
	l20.91,19.76l136.63,165.3c29.35,35.47,84.41,32.41,108.22-6.32l27.67-61.12L693.18,565.57z"/>
<path class="st3" d="M680.5,586.23c0.02-0.27,2.41,0.8,5.42,4.16c2.76,3.05,5.6,8.32,6.69,14.8c1.11,6.2,0.61,11.95-0.02,16.03
	c-0.63,4.08-1.12,6.52-1.39,6.49c-0.27-0.03-0.33-2.52,0.03-6.63c0.09-4.14,0.29-9.65-0.57-15.54c-1.13-5.93-3.43-11.14-5.64-14.13
	C682.53,588.1,680.47,586.51,680.5,586.23z"/>
<path class="st3" d="M472.97,434.47c-0.25-0.3,0.68-1.57,2.24-3.87c1.81-2,4.79-4.97,8.95-5.91c4.43-0.91,8.63,0.89,10.6,3.28
	c1.97,2.39,1.8,4.29,1.53,4.26c-0.27-0.03-0.67-1.71-2.44-3.26c-1.77-1.55-5.45-3.03-9.05-2.3c-3.62,0.99-6.53,3.15-8.31,4.88
	C474.41,433.53,473.22,434.77,472.97,434.47z"/>
<path class="st3" d="M495.4,450.4c-0.29,0.24-1.28-0.95-2.82-1.92c-1.79-1.27-4.39-2.63-7.35-2.93c-2.96-0.3-6.02,0.47-7.73,1.39
	c-1.98,0.89-2.86,1.61-3.1,1.32c-0.25-0.3,0.66-1.3,2.41-2.75c1.73-1.18,5.11-2.47,8.61-2.11c3.5,0.35,6.61,2.03,8.08,3.82
	C495.01,448.73,495.42,450.13,495.4,450.4z"/>
<path class="st1" d="M692.85,564.09c0,0-0.82-0.08-2.4-0.8c-1.58-0.72-3.91-2.34-5.57-5.27c-1.93-2.96-3.23-6.96-3.37-11.67
	c-0.14-4.71,1.42-10.06,4.07-15.31c2.65-5.24,6.38-10.38,9.64-16.39c3.53-5.98,6.58-12.57,9.39-19.73
	c5.9-14.29,10.61-30.64,16.73-47.4c6.12-16.75,13.52-32.54,23.6-44.47c9.56-12.25,22.02-20.07,33.04-23.89
	c11.04-4.1,20.89-3.9,27.35-2.68c6.47,1.22,9.88,2.96,9.88,2.96c-0.02,0.27-3.46-1.19-9.95-2.14c-6.49-0.95-16.09-0.84-26.86,3.28
	c-10.75,3.85-22.66,11.72-31.93,23.73c-9.54,11.98-16.89,27.23-23.01,43.98c-6.12,16.75-10.83,33.1-17,47.37
	c-3.09,7.13-6.13,13.72-9.66,19.7c-3.54,5.98-7.27,11.11-9.92,16.36c-2.63,4.97-4.44,10.03-4.3,14.74
	c-0.13,4.68,1.19,8.4,2.85,11.34c1.66,2.93,3.71,4.53,5.03,5.22C692.06,563.73,692.85,564.09,692.85,564.09z"/>
<path class="st1" d="M554.37,466.06c-0.55-0.06,2.19-15.03,6.34-33.46c4.15-18.43,7.68-33.05,8.23-32.99
	c0.55,0.05-2.18,15.03-6.34,33.46C558.75,451.25,554.92,466.11,554.37,466.06z"/>
<path class="st2" d="M489.34,519.31l-11.89,55.18l-78.38-81.38l-47.23,6.36c0,0,38.85,105.88,72.97,149.9
	c34.12,44.01,53.94,51.59,68.21,53.9c19.41,2.85,30.42-20.22,30.42-20.22l20.45-137.96L489.34,519.31z"/>
<path class="st3" d="M477.94,572.42c0.57-0.22,3.32,6.15,4.78,14.61c1.46,8.45,1.13,15.34,0.59,15.28
	c-0.55-0.05-1.06-6.75-2.55-14.93C479.27,579.2,477.37,572.63,477.94,572.42z"/>
<path class="st5" d="M404.99,349.68l-63.54-6.62c-9.73-1.02-19.09,9.29-16.65,18.89l53.16,132.34c2.01,5.16,6.88,8.69,12.29,9.26
	l77.62,7.81c9.02-0.16,13.14-9.91,9.83-15.75l-50.97-129.36C422.9,357.04,414.45,350.66,404.99,349.68z"/>
<path class="st1" d="M400.01,356.64l-63.54-6.62c-7.84-0.82-13.98,7.07-10.81,14.55l51.77,129.43c2.01,5.16,6.89,8.69,12.29,9.26
	l76.78,8c4.59,0.48,8.27-4.09,6.48-8.67l-50.96-129.34C417.9,364.28,409.74,357.65,400.01,356.64z"/>
<path class="st2" d="M390.02,407.87l-40.07,11.52l-11.12,30.52l14.6,48.9l67.63,17.24l-18.23-22.84l4.27-17.74
	c0,0,19.75-4,20.28-6.97c0.8-2.95-1.32-13.08-4.25-13.94c-2.93-0.86-23.63,4.7-23.63,4.7s25.46-16.35,24.94-19.71
	c-0.28-3.06-2.3-11.26-6.83-12.56c-4.53-1.3-44.55,12.71-44.55,12.71l-7.46,13.55l-3.42-23.49
	C362.09,430.58,397.06,424.31,390.02,407.87z"/>
<path class="st3" d="M388.29,482.38c-0.27-0.03-0.97-1.48-1.03-3.98c-0.06-2.5,0.28-6.33,1.95-9.75c1.7-3.7,4.12-6.21,6.17-7.65
	c2.05-1.45,3.46-1.85,3.73-1.83c0.22,0.58-4.99,3.63-8.04,10.22C388.02,475.99,388.85,482.16,388.29,482.38z"/>
<path class="st3" d="M370.63,473.41c-0.27-0.03,1.41-3.7,2.52-10.18c0.55-3.24,1.15-7.02,2.88-11.24c1-2.1,2.27-4.16,4.03-5.62
	c1.79-1.74,4.31-2.57,6.58-3.43c9.48-2.31,18.1-4.15,24.51-5.68c6.38-1.25,10.27-1.95,10.24-1.67c-0.02,0.27-3.68,1.54-9.82,3.09
	c-6.16,1.83-14.81,3.95-24.29,6.25c-2.23,0.59-4.49,1.45-5.99,2.95c-1.76,1.46-2.74,3.28-3.7,4.83c-1.68,3.67-2.55,7.42-3.1,10.67
	C373.1,470.1,370.9,473.44,370.63,473.41z"/>
<path class="st3" d="M362.43,465.78c-0.55-0.06-0.23-3.63,0.96-7.66c1.18-4.03,2.3-7.24,2.85-7.19c0.55,0.05,0.23,3.62-0.96,7.66
	C364.37,462.66,362.98,465.84,362.43,465.78z"/>
<path class="st0" d="M369.5,377.13c-0.4,4.64,2.8,8.55,7.4,9.03c4.59,0.48,8.42-2.71,8.82-7.35c0.41-4.64-2.8-8.56-7.39-9.03
	C374,369.33,369.89,372.76,369.5,377.13z"/>
<path class="st3" d="M514.85,520.84c0,0,0.77,0.63,2.29,2.17c1.49,1.81,3.51,3.96,5.78,6.4c5.28,5.79,12.3,13.71,20.84,23.16
	l0.25,0.3l-0.05,0.55c-2.27,13.07-4.74,28.33-7.58,44.67c-3.8,24-7.41,45.8-9.37,61.67c-0.96,7.66-1.8,13.95-2.49,18.59
	c-0.67,4.36-0.89,6.84-1.16,6.81c-0.27-0.03-0.05-2.5,0.34-6.89c0.39-4.39,0.98-10.98,1.97-18.92c1.7-15.9,5.03-37.72,8.82-61.72
	c2.56-16.36,5.33-31.88,7.85-44.65l0.2,0.85c-8.24-9.7-14.97-17.86-20.24-23.65c-2.24-2.72-3.99-4.83-5.48-6.64
	C515.32,521.72,514.57,520.81,514.85,520.84z"/>
<path class="st10" d="M80.6,394.22c-68.7,32.04-99.5,114.41-68.81,184.01c30.7,69.6,111.25,100.04,179.95,68
	c56.7-26.44,87.46-87.27,79.36-146.82l19.07-51.01l-49.88-18.85C202.07,384.06,137.3,367.78,80.6,394.22z"/>
<g>
	<path class="st11" d="M207.52,456.95c4.21-0.3,7.88,2.86,8.18,7.08l6.73,93.09c0.3,4.21-2.86,7.87-7.08,8.18l-104.91,7.59
		c-0.95-4.33-4.95-7.41-9.49-7.08c-4.54,0.33-8.06,3.96-8.38,8.37l-24.48,1.77c-4.21,0.3-7.88-2.86-8.18-7.08l-6.73-93.08
		c-0.3-4.21,2.86-7.88,7.08-8.18l24.48-1.77c-0.03,0.43-0.03,0.87,0,1.31c0.36,4.99,4.7,8.74,9.68,8.38
		c4.99-0.36,8.74-4.69,8.38-9.68c-0.03-0.44-0.1-0.87-0.19-1.3L207.52,456.95z"/>
</g>
<line class="st12" x1="93.41" y1="483.77" x2="98.95" y2="560.31"/>
<path class="st13" d="M153.65,542.89l4.6-0.33l-0.34-4.96c9.25-1.35,14.21-6.85,13.71-14.11c-0.58-7.69-7.18-10.75-13.97-11.85
	l-1.46-0.27l-0.81-12.38c3.51,0.35,5.9,2.27,6.47,5.37l7.74-0.56c-0.63-6.88-6.41-11.52-14.66-11.71l-0.34-5.05l-4.6,0.33l0.34,5.05
	c-8.07,1.41-13.56,6.82-13.02,14c0.46,6.38,5.26,9.71,12.7,11.07l1.99,0.36l0.86,13.12c-3.92-0.33-6.88-2.34-7.45-6.24l-7.91,0.57
	c0.89,8.11,6.83,12.54,15.82,12.63L153.65,542.89z M157.45,530.63l-0.77-11.9c4.03,0.86,6.65,2.2,6.9,5.28
	C163.78,527.2,161.37,529.69,157.45,530.63z M151.5,510.53c-3.06-0.73-5.91-2.12-6.09-5.2c-0.18-2.8,1.77-5.12,5.36-6.01
	L151.5,510.53z"/>
</svg>
