<svg width="400" height="230" viewBox="0 0 400 230" fill="none" xmlns="http://www.w3.org/2000/svg">
<g clip-path="url(#clip0_4224_27723)">
<path d="M369.426 323.193L360.398 293.227C416.134 234.885 412.411 140.88 352.153 83.4846C291.928 25.9706 197.842 26.7235 142.226 85.102C86.4898 143.445 90.213 237.449 150.47 294.845C203.021 344.934 282.636 351.728 340.059 310.909L369.426 323.193Z" fill="white"/>
<mask id="mask0_4224_27723" style="mask-type:alpha" maskUnits="userSpaceOnUse" x="117" y="118" width="283" height="271">
<path opacity="0.8" d="M186.461 158.149L172.576 206.42C167.367 255.516 100.288 268.295 122.286 325.471C144.569 383.814 224.781 388.856 285.143 388.382C315.205 388.152 364.561 391.651 381.337 361.894C427.949 310.713 372.304 336.112 361.692 316.957C348.534 293.451 353.71 298.597 352.323 270.545C351.465 252.51 358.115 238.554 362.134 221.079C384.358 124.958 230.155 80.3507 186.461 158.149Z" fill="#EFC2C2"/>
</mask>
<g mask="url(#mask0_4224_27723)">
<g opacity="0.7">
<path d="M242.223 127.356C241.319 128.322 239.902 128.354 238.916 127.431C237.931 126.508 237.869 125.091 238.773 124.125C239.677 123.159 241.094 123.126 242.08 124.049C242.943 124.857 243.127 126.389 242.223 127.356Z" fill="#CBD0FF"/>
<path d="M253.903 138.298C252.999 139.264 251.582 139.296 250.596 138.373C249.61 137.45 249.549 136.033 250.453 135.067C251.357 134.101 252.774 134.068 253.76 134.991C254.746 135.914 254.807 137.331 253.903 138.298Z" fill="#CBD0FF"/>
<path d="M264.774 126.645C263.87 127.611 262.453 127.644 261.467 126.72C260.482 125.797 260.42 124.38 261.324 123.414C262.228 122.448 263.645 122.415 264.631 123.338C265.617 124.261 265.565 125.799 264.774 126.645Z" fill="#CBD0FF"/>
<path d="M265.673 149.351C264.769 150.317 263.351 150.35 262.366 149.427C261.38 148.503 261.319 147.086 262.222 146.12C263.126 145.154 264.544 145.121 265.529 146.044C266.515 146.967 266.576 148.384 265.673 149.351Z" fill="#CBD0FF"/>
<path d="M276.544 137.698C275.64 138.664 274.222 138.697 273.237 137.774C272.251 136.851 272.19 135.433 273.094 134.467C273.997 133.501 275.415 133.468 276.4 134.391C277.386 135.314 277.335 136.852 276.544 137.698Z" fill="#CBD0FF"/>
<path d="M287.29 126.166C286.386 127.132 284.969 127.165 283.983 126.242C282.997 125.319 282.936 123.901 283.84 122.935C284.744 121.969 286.161 121.936 287.147 122.859C288.132 123.782 288.194 125.2 287.29 126.166Z" fill="#CBD0FF"/>
<path d="M277.446 160.395C276.542 161.362 275.125 161.394 274.139 160.471C273.153 159.548 273.092 158.131 273.996 157.165C274.9 156.198 276.317 156.166 277.303 157.089C278.165 157.897 278.35 159.429 277.446 160.395Z" fill="#CBD0FF"/>
<path d="M288.34 148.754C287.437 149.721 286.019 149.753 285.034 148.83C284.048 147.907 283.987 146.49 284.89 145.524C285.794 144.557 287.212 144.525 288.197 145.448C289.06 146.256 289.131 147.909 288.34 148.754Z" fill="#CBD0FF"/>
<path d="M299.075 137.229C298.171 138.195 296.754 138.227 295.768 137.304C294.782 136.381 294.721 134.964 295.625 133.998C296.529 133.032 297.946 132.999 298.932 133.922C299.794 134.73 299.979 136.262 299.075 137.229Z" fill="#CBD0FF"/>
<path d="M309.95 125.599C309.046 126.565 307.629 126.597 306.643 125.674C305.657 124.751 305.596 123.334 306.5 122.368C307.404 121.402 308.821 121.369 309.807 122.292C310.669 123.1 310.741 124.753 309.95 125.599Z" fill="#CBD0FF"/>
<path d="M175.426 151.587C174.523 152.554 173.105 152.586 172.12 151.663C171.134 150.74 171.072 149.323 171.976 148.357C172.88 147.39 174.298 147.358 175.283 148.281C176.269 149.204 176.217 150.742 175.426 151.587Z" fill="#CBD0FF"/>
<path d="M186.165 140.073C185.261 141.039 183.844 141.072 182.858 140.149C181.872 139.226 181.811 137.808 182.715 136.842C183.619 135.876 185.036 135.843 186.022 136.766C187.007 137.689 187.069 139.106 186.165 140.073Z" fill="#CBD0FF"/>
<path d="M197.028 128.421C196.124 129.387 194.707 129.42 193.721 128.497C192.735 127.574 192.674 126.157 193.578 125.19C194.482 124.224 195.899 124.192 196.885 125.115C197.871 126.038 197.932 127.455 197.028 128.421Z" fill="#CBD0FF"/>
<path d="M207.805 116.884C206.901 117.85 205.484 117.883 204.498 116.96C203.513 116.037 203.451 114.62 204.355 113.653C205.259 112.687 206.676 112.655 207.662 113.578C208.648 114.501 208.709 115.918 207.805 116.884Z" fill="#CBD0FF"/>
<path d="M187.18 162.627C186.276 163.594 184.859 163.626 183.873 162.703C182.888 161.78 182.826 160.363 183.73 159.397C184.634 158.43 186.051 158.398 187.037 159.321C188.023 160.244 187.971 161.782 187.18 162.627Z" fill="#CBD0FF"/>
<path d="M197.95 151.107C197.046 152.073 195.629 152.106 194.643 151.183C193.657 150.26 193.596 148.843 194.5 147.876C195.404 146.91 196.821 146.878 197.807 147.801C198.792 148.724 198.854 150.141 197.95 151.107Z" fill="#CBD0FF"/>
<path d="M208.833 139.476C207.929 140.442 206.511 140.475 205.526 139.552C204.54 138.629 204.479 137.212 205.383 136.245C206.287 135.279 207.704 135.246 208.689 136.169C209.675 137.093 209.737 138.51 208.833 139.476Z" fill="#CBD0FF"/>
<path d="M219.587 127.947C218.683 128.913 217.265 128.945 216.28 128.022C215.294 127.099 215.233 125.682 216.137 124.716C217.04 123.75 218.458 123.717 219.443 124.64C220.429 125.563 220.49 126.98 219.587 127.947Z" fill="#CBD0FF"/>
<path d="M198.969 173.709C198.065 174.675 196.648 174.708 195.663 173.785C194.677 172.862 194.615 171.444 195.519 170.478C196.423 169.512 197.841 169.479 198.826 170.402C199.689 171.21 199.76 172.863 198.969 173.709Z" fill="#CBD0FF"/>
<path d="M209.719 162.18C208.815 163.147 207.398 163.179 206.413 162.256C205.427 161.333 205.365 159.916 206.269 158.95C207.173 157.983 208.59 157.951 209.576 158.874C210.439 159.682 210.623 161.214 209.719 162.18Z" fill="#CBD0FF"/>
<path d="M220.618 150.511C219.714 151.477 218.297 151.51 217.311 150.587C216.325 149.664 216.264 148.246 217.168 147.28C218.072 146.314 219.489 146.281 220.475 147.204C221.337 148.012 221.522 149.544 220.618 150.511Z" fill="#CBD0FF"/>
<path d="M231.348 138.997C230.444 139.963 229.027 139.996 228.041 139.073C227.056 138.15 226.994 136.733 227.898 135.766C228.802 134.8 230.219 134.768 231.205 135.691C232.068 136.498 232.252 138.031 231.348 138.997Z" fill="#CBD0FF"/>
<path d="M210.618 184.632C209.714 185.599 208.297 185.631 207.311 184.708C206.325 183.785 206.264 182.368 207.168 181.402C208.072 180.435 209.489 180.403 210.475 181.326C211.46 182.249 211.409 183.787 210.618 184.632Z" fill="#CBD0FF"/>
<path d="M221.383 173.097C220.479 174.063 219.062 174.096 218.077 173.173C217.091 172.25 217.03 170.833 217.933 169.866C218.837 168.9 220.255 168.868 221.24 169.791C222.226 170.714 222.287 172.131 221.383 173.097Z" fill="#CBD0FF"/>
<path d="M232.254 161.472C231.351 162.438 229.933 162.471 228.948 161.548C227.962 160.625 227.901 159.208 228.804 158.241C229.708 157.275 231.126 157.242 232.111 158.165C233.097 159.089 233.158 160.506 232.254 161.472Z" fill="#CBD0FF"/>
<path d="M243.012 149.954C242.108 150.92 240.691 150.953 239.706 150.03C238.72 149.107 238.658 147.69 239.562 146.723C240.466 145.757 241.883 145.725 242.869 146.648C243.855 147.571 243.916 148.988 243.012 149.954Z" fill="#CBD0FF"/>
<path d="M222.407 195.687C221.503 196.653 220.086 196.685 219.1 195.762C218.114 194.839 218.053 193.422 218.957 192.456C219.861 191.49 221.278 191.457 222.264 192.38C223.249 193.303 223.198 194.841 222.407 195.687Z" fill="#CBD0FF"/>
<path d="M233.176 184.155C232.273 185.121 230.855 185.153 229.87 184.23C228.884 183.307 228.822 181.89 229.726 180.924C230.63 179.957 232.048 179.925 233.033 180.848C234.019 181.771 234.08 183.188 233.176 184.155Z" fill="#CBD0FF"/>
<path d="M244.04 172.507C243.136 173.473 241.719 173.506 240.733 172.583C239.747 171.659 239.686 170.242 240.59 169.276C241.494 168.31 242.911 168.277 243.897 169.2C244.882 170.123 244.944 171.54 244.04 172.507Z" fill="#CBD0FF"/>
<path d="M254.786 160.991C253.882 161.958 252.465 161.99 251.479 161.067C250.493 160.144 250.432 158.727 251.336 157.76C252.24 156.794 253.657 156.762 254.643 157.685C255.628 158.608 255.69 160.025 254.786 160.991Z" fill="#CBD0FF"/>
<path d="M234.161 206.731C233.257 207.697 231.84 207.73 230.854 206.807C229.868 205.883 229.807 204.466 230.711 203.5C231.615 202.534 233.032 202.501 234.018 203.424C234.88 204.232 234.952 205.885 234.161 206.731Z" fill="#CBD0FF"/>
<path d="M244.926 195.187C244.022 196.154 242.605 196.186 241.619 195.263C240.634 194.34 240.572 192.923 241.476 191.957C242.38 190.99 243.797 190.958 244.783 191.881C245.646 192.688 245.83 194.221 244.926 195.187Z" fill="#CBD0FF"/>
<path d="M255.801 183.557C254.897 184.524 253.48 184.556 252.494 183.633C251.509 182.71 251.447 181.293 252.351 180.327C253.255 179.36 254.672 179.328 255.658 180.251C256.521 181.059 256.705 182.591 255.801 183.557Z" fill="#CBD0FF"/>
<path d="M266.602 172.032C265.698 172.998 264.281 173.031 263.295 172.108C262.31 171.185 262.248 169.768 263.152 168.801C264.056 167.835 265.473 167.803 266.459 168.726C267.321 169.533 267.506 171.066 266.602 172.032Z" fill="#CBD0FF"/>
</g>
<g opacity="0.7">
<path d="M288.637 170.868C287.733 171.834 286.316 171.867 285.331 170.944C284.345 170.021 284.283 168.603 285.187 167.637C286.091 166.671 287.508 166.638 288.494 167.561C289.48 168.485 289.541 169.902 288.637 170.868Z" fill="#CBD0FF"/>
<path d="M299.512 159.202C298.608 160.168 297.191 160.201 296.206 159.278C295.22 158.355 295.158 156.937 296.062 155.971C296.966 155.005 298.383 154.972 299.369 155.895C300.355 156.818 300.303 158.356 299.512 159.202Z" fill="#CBD0FF"/>
<path d="M310.274 147.684C309.37 148.65 307.953 148.682 306.967 147.759C305.982 146.836 305.92 145.419 306.824 144.453C307.728 143.487 309.145 143.454 310.131 144.377C311.117 145.3 311.178 146.717 310.274 147.684Z" fill="#CBD0FF"/>
<path d="M321.137 136.02C320.233 136.987 318.816 137.019 317.831 136.096C316.845 135.173 316.783 133.756 317.687 132.79C318.591 131.823 320.008 131.791 320.994 132.714C321.98 133.637 321.928 135.175 321.137 136.02Z" fill="#CBD0FF"/>
<path d="M331.899 124.529C330.995 125.495 329.578 125.528 328.592 124.605C327.607 123.682 327.545 122.265 328.449 121.298C329.353 120.332 330.77 120.299 331.756 121.222C332.742 122.146 332.803 123.563 331.899 124.529Z" fill="#CBD0FF"/>
<path d="M300.43 181.929C299.526 182.895 298.109 182.927 297.123 182.004C296.138 181.081 296.076 179.664 296.98 178.698C297.884 177.732 299.301 177.699 300.287 178.622C301.273 179.545 301.334 180.962 300.43 181.929Z" fill="#CBD0FF"/>
<path d="M311.301 170.276C310.397 171.242 308.98 171.274 307.995 170.351C307.009 169.428 306.947 168.011 307.851 167.045C308.755 166.079 310.172 166.046 311.158 166.969C312.144 167.892 312.092 169.43 311.301 170.276Z" fill="#CBD0FF"/>
<path d="M322.055 158.758C321.151 159.725 319.734 159.757 318.748 158.834C317.763 157.911 317.701 156.494 318.605 155.528C319.509 154.561 320.926 154.529 321.912 155.452C322.898 156.375 322.959 157.792 322.055 158.758Z" fill="#CBD0FF"/>
<path d="M332.95 147.101C332.046 148.068 330.629 148.1 329.643 147.177C328.657 146.254 328.596 144.837 329.5 143.871C330.404 142.904 331.821 142.872 332.807 143.795C333.792 144.718 333.741 146.256 332.95 147.101Z" fill="#CBD0FF"/>
<path d="M343.68 135.564C342.776 136.531 341.359 136.563 340.373 135.64C339.388 134.717 339.326 133.3 340.23 132.334C341.134 131.367 342.551 131.335 343.537 132.258C344.523 133.181 344.584 134.598 343.68 135.564Z" fill="#CBD0FF"/>
<path d="M312.184 192.957C311.28 193.924 309.863 193.956 308.877 193.033C307.892 192.11 307.83 190.693 308.734 189.727C309.638 188.76 311.055 188.728 312.041 189.651C312.904 190.459 313.088 191.991 312.184 192.957Z" fill="#CBD0FF"/>
<path d="M323.067 181.314C322.163 182.28 320.746 182.312 319.76 181.389C318.774 180.466 318.713 179.049 319.617 178.083C320.521 177.117 321.938 177.084 322.924 178.007C323.786 178.815 323.858 180.468 323.067 181.314Z" fill="#CBD0FF"/>
<path d="M333.813 169.786C332.909 170.752 331.492 170.784 330.506 169.861C329.521 168.938 329.459 167.521 330.363 166.555C331.267 165.589 332.684 165.556 333.67 166.479C334.532 167.287 334.717 168.819 333.813 169.786Z" fill="#CBD0FF"/>
<path d="M344.708 158.141C343.804 159.107 342.387 159.14 341.401 158.217C340.415 157.294 340.354 155.877 341.258 154.91C342.162 153.944 343.579 153.912 344.564 154.835C345.427 155.642 345.499 157.295 344.708 158.141Z" fill="#CBD0FF"/>
<path d="M355.442 146.615C354.538 147.581 353.121 147.614 352.135 146.691C351.149 145.768 351.088 144.351 351.992 143.384C352.896 142.418 354.313 142.385 355.299 143.309C356.161 144.116 356.346 145.649 355.442 146.615Z" fill="#CBD0FF"/>
<path d="M323.86 203.896C322.956 204.862 321.539 204.895 320.553 203.972C319.567 203.049 319.506 201.632 320.41 200.665C321.314 199.699 322.731 199.667 323.717 200.59C324.703 201.513 324.764 202.93 323.86 203.896Z" fill="#CBD0FF"/>
<path d="M334.708 192.259C333.804 193.225 332.387 193.258 331.401 192.334C330.415 191.411 330.354 189.994 331.258 189.028C332.162 188.062 333.579 188.029 334.564 188.952C335.55 189.875 335.499 191.413 334.708 192.259Z" fill="#CBD0FF"/>
<path d="M345.485 180.725C344.581 181.692 343.164 181.724 342.178 180.801C341.192 179.878 341.131 178.461 342.035 177.495C342.939 176.528 344.356 176.496 345.342 177.419C346.328 178.342 346.389 179.759 345.485 180.725Z" fill="#CBD0FF"/>
<path d="M356.34 169.079C355.437 170.045 354.019 170.078 353.034 169.155C352.048 168.231 351.987 166.814 352.89 165.848C353.794 164.882 355.212 164.849 356.197 165.772C357.183 166.695 357.131 168.233 356.34 169.079Z" fill="#CBD0FF"/>
<path d="M367.114 157.542C366.21 158.508 364.793 158.541 363.807 157.618C362.821 156.695 362.76 155.278 363.664 154.311C364.568 153.345 365.985 153.313 366.971 154.236C367.956 155.159 368.018 156.576 367.114 157.542Z" fill="#CBD0FF"/>
<path d="M335.641 214.943C334.737 215.91 333.32 215.942 332.334 215.019C331.349 214.096 331.287 212.679 332.191 211.713C333.095 210.746 334.512 210.714 335.498 211.637C336.484 212.56 336.545 213.977 335.641 214.943Z" fill="#CBD0FF"/>
<path d="M346.508 203.295C345.605 204.261 344.187 204.294 343.202 203.371C342.216 202.448 342.154 201.031 343.058 200.064C343.962 199.098 345.38 199.065 346.365 199.989C347.351 200.912 347.299 202.449 346.508 203.295Z" fill="#CBD0FF"/>
<path d="M357.266 191.772C356.362 192.739 354.945 192.771 353.959 191.848C352.974 190.925 352.912 189.508 353.816 188.542C354.72 187.575 356.137 187.543 357.123 188.466C358.109 189.389 358.17 190.806 357.266 191.772Z" fill="#CBD0FF"/>
<path d="M368.13 180.165C367.226 181.131 365.808 181.164 364.823 180.24C363.837 179.317 363.776 177.9 364.679 176.934C365.583 175.968 367.001 175.935 367.986 176.858C368.972 177.781 368.92 179.319 368.13 180.165Z" fill="#CBD0FF"/>
<path d="M378.907 168.615C378.003 169.581 376.586 169.614 375.6 168.691C374.614 167.768 374.553 166.351 375.457 165.384C376.361 164.418 377.778 164.386 378.764 165.309C379.749 166.232 379.811 167.649 378.907 168.615Z" fill="#CBD0FF"/>
<path d="M347.391 226.011C346.487 226.978 345.07 227.01 344.084 226.087C343.099 225.164 343.037 223.747 343.941 222.781C344.845 221.814 346.262 221.782 347.248 222.705C348.111 223.513 348.295 225.045 347.391 226.011Z" fill="#CBD0FF"/>
<path d="M358.301 214.34C357.397 215.306 355.98 215.339 354.994 214.416C354.009 213.493 353.947 212.076 354.851 211.109C355.755 210.143 357.172 210.11 358.158 211.033C359.021 211.841 359.092 213.494 358.301 214.34Z" fill="#CBD0FF"/>
<path d="M369.051 202.835C368.147 203.801 366.73 203.834 365.744 202.911C364.759 201.988 364.697 200.571 365.601 199.605C366.505 198.638 367.922 198.606 368.908 199.529C369.771 200.336 369.955 201.869 369.051 202.835Z" fill="#CBD0FF"/>
<path d="M379.919 191.199C379.015 192.165 377.597 192.198 376.612 191.275C375.626 190.352 375.565 188.935 376.469 187.968C377.372 187.002 378.79 186.969 379.775 187.892C380.638 188.7 380.709 190.353 379.919 191.199Z" fill="#CBD0FF"/>
<path d="M390.665 179.671C389.761 180.637 388.343 180.67 387.358 179.747C386.372 178.823 386.311 177.406 387.215 176.44C388.119 175.474 389.536 175.441 390.521 176.364C391.384 177.172 391.569 178.704 390.665 179.671Z" fill="#CBD0FF"/>
<path d="M245.395 217.184C244.491 218.15 243.074 218.182 242.088 217.259C241.103 216.336 241.041 214.919 241.945 213.953C242.849 212.987 244.266 212.954 245.252 213.877C246.238 214.8 246.186 216.338 245.395 217.184Z" fill="#CBD0FF"/>
<path d="M256.145 205.69C255.241 206.657 253.824 206.689 252.838 205.766C251.853 204.843 251.791 203.426 252.695 202.46C253.599 201.493 255.016 201.461 256.002 202.384C256.988 203.307 257.049 204.724 256.145 205.69Z" fill="#CBD0FF"/>
<path d="M267.001 194.029C266.097 194.995 264.68 195.027 263.694 194.104C262.708 193.181 262.647 191.764 263.551 190.798C264.454 189.832 265.872 189.799 266.857 190.722C267.843 191.645 267.905 193.062 267.001 194.029Z" fill="#CBD0FF"/>
<path d="M277.758 182.482C276.855 183.449 275.437 183.481 274.452 182.558C273.466 181.635 273.404 180.218 274.308 179.252C275.212 178.285 276.63 178.253 277.615 179.176C278.601 180.099 278.662 181.516 277.758 182.482Z" fill="#CBD0FF"/>
<path d="M257.169 228.256C256.265 229.222 254.847 229.255 253.862 228.332C252.876 227.409 252.815 225.992 253.719 225.025C254.622 224.059 256.04 224.027 257.025 224.95C258.011 225.873 257.96 227.411 257.169 228.256Z" fill="#CBD0FF"/>
<path d="M267.899 216.707C266.995 217.673 265.578 217.706 264.592 216.782C263.606 215.859 263.545 214.442 264.449 213.476C265.353 212.51 266.77 212.477 267.756 213.4C268.742 214.323 268.803 215.74 267.899 216.707Z" fill="#CBD0FF"/>
<path d="M278.794 205.101C277.89 206.068 276.472 206.1 275.487 205.177C274.501 204.254 274.44 202.837 275.344 201.871C276.247 200.904 277.665 200.872 278.65 201.795C279.636 202.718 279.697 204.135 278.794 205.101Z" fill="#CBD0FF"/>
<path d="M289.532 193.519C288.628 194.485 287.211 194.518 286.225 193.595C285.239 192.672 285.178 191.255 286.082 190.288C286.986 189.322 288.403 189.29 289.389 190.213C290.374 191.136 290.436 192.553 289.532 193.519Z" fill="#CBD0FF"/>
<path d="M279.7 227.798C278.796 228.765 277.379 228.797 276.393 227.874C275.407 226.951 275.346 225.534 276.25 224.568C277.154 223.601 278.571 223.569 279.557 224.492C280.419 225.3 280.604 226.832 279.7 227.798Z" fill="#CBD0FF"/>
<path d="M290.555 216.128C289.651 217.094 288.234 217.127 287.248 216.204C286.263 215.281 286.201 213.864 287.105 212.897C288.009 211.931 289.426 211.898 290.412 212.822C291.275 213.629 291.459 215.162 290.555 216.128Z" fill="#CBD0FF"/>
<path d="M301.321 204.605C300.417 205.571 299 205.604 298.014 204.681C297.028 203.758 296.967 202.341 297.871 201.374C298.775 200.408 300.192 200.376 301.178 201.299C302.04 202.106 302.225 203.639 301.321 204.605Z" fill="#CBD0FF"/>
<path d="M302.219 227.069C301.315 228.035 299.898 228.068 298.913 227.145C297.927 226.222 297.865 224.805 298.769 223.838C299.673 222.872 301.091 222.84 302.076 223.763C303.062 224.686 303.123 226.103 302.219 227.069Z" fill="#CBD0FF"/>
<path d="M312.965 215.537C312.062 216.503 310.644 216.536 309.659 215.613C308.673 214.69 308.612 213.273 309.515 212.306C310.419 211.34 311.837 211.308 312.822 212.231C313.808 213.154 313.869 214.571 312.965 215.537Z" fill="#CBD0FF"/>
<path d="M324.774 226.607C323.87 227.574 322.453 227.606 321.467 226.683C320.482 225.76 320.42 224.343 321.324 223.377C322.228 222.41 323.645 222.378 324.631 223.301C325.617 224.224 325.678 225.641 324.774 226.607Z" fill="#CBD0FF"/>
</g>
<g opacity="0.7">
<path d="M354.903 123.576C353.999 124.542 352.582 124.574 351.596 123.651C350.61 122.728 350.549 121.311 351.453 120.345C352.357 119.379 353.774 119.346 354.76 120.269C355.745 121.192 355.807 122.609 354.903 123.576Z" fill="#CBD0FF"/>
<path d="M366.688 134.638C365.784 135.604 364.367 135.637 363.381 134.714C362.396 133.791 362.334 132.374 363.238 131.407C364.142 130.441 365.559 130.409 366.545 131.332C367.407 132.139 367.592 133.672 366.688 134.638Z" fill="#CBD0FF"/>
<path d="M377.54 123C376.636 123.966 375.219 123.999 374.233 123.076C373.247 122.153 373.186 120.736 374.09 119.769C374.994 118.803 376.411 118.771 377.397 119.694C378.259 120.501 378.444 122.034 377.54 123Z" fill="#CBD0FF"/>
<path d="M378.313 145.562C377.409 146.528 375.992 146.561 375.006 145.638C374.021 144.715 373.959 143.297 374.863 142.331C375.767 141.365 377.184 141.332 378.17 142.255C379.156 143.178 379.217 144.595 378.313 145.562Z" fill="#CBD0FF"/>
<path d="M389.196 133.931C388.292 134.897 386.875 134.929 385.889 134.006C384.903 133.083 384.842 131.666 385.746 130.7C386.65 129.734 388.067 129.701 389.053 130.624C390.038 131.547 390.1 132.964 389.196 133.931Z" fill="#CBD0FF"/>
<path d="M400.071 122.269C399.167 123.235 397.75 123.268 396.764 122.345C395.778 121.422 395.717 120.005 396.621 119.039C397.525 118.072 398.942 118.04 399.928 118.963C400.914 119.886 400.862 121.424 400.071 122.269Z" fill="#CBD0FF"/>
<path d="M390.118 156.64C389.214 157.607 387.797 157.639 386.811 156.716C385.825 155.793 385.764 154.376 386.668 153.41C387.572 152.443 388.989 152.411 389.975 153.334C390.96 154.257 391.022 155.674 390.118 156.64Z" fill="#CBD0FF"/>
<path d="M400.977 144.966C400.073 145.933 398.656 145.965 397.67 145.042C396.685 144.119 396.623 142.702 397.527 141.736C398.431 140.769 399.848 140.737 400.834 141.66C401.82 142.583 401.881 144 400.977 144.966Z" fill="#CBD0FF"/>
<path d="M401.887 167.667C400.983 168.633 399.566 168.665 398.58 167.742C397.595 166.819 397.533 165.402 398.437 164.436C399.341 163.47 400.758 163.437 401.744 164.36C402.607 165.168 402.791 166.7 401.887 167.667Z" fill="#CBD0FF"/>
</g>
<g opacity="0.7">
<path d="M370.63 225.997C369.726 226.963 368.308 226.996 367.323 226.073C366.337 225.15 366.276 223.732 367.179 222.766C368.083 221.8 369.501 221.767 370.486 222.69C371.472 223.613 371.42 225.151 370.63 225.997Z" fill="#CBD0FF"/>
<path d="M381.38 214.445C380.476 215.411 379.058 215.444 378.073 214.52C377.087 213.597 377.026 212.18 377.929 211.214C378.833 210.248 380.251 210.215 381.236 211.138C382.222 212.061 382.283 213.478 381.38 214.445Z" fill="#CBD0FF"/>
<path d="M392.266 202.812C391.362 203.779 389.945 203.811 388.959 202.888C387.974 201.965 387.912 200.548 388.816 199.582C389.72 198.615 391.137 198.583 392.123 199.506C393.109 200.429 393.057 201.967 392.266 202.812Z" fill="#CBD0FF"/>
<path d="M403.008 191.297C402.105 192.264 400.687 192.296 399.702 191.373C398.716 190.45 398.654 189.033 399.558 188.067C400.462 187.1 401.88 187.068 402.865 187.991C403.851 188.914 403.912 190.331 403.008 191.297Z" fill="#CBD0FF"/>
<path d="M393.172 225.513C392.269 226.48 390.851 226.512 389.866 225.589C388.88 224.666 388.819 223.249 389.722 222.283C390.626 221.316 392.044 221.284 393.029 222.207C394.015 223.13 394.076 224.547 393.172 225.513Z" fill="#CBD0FF"/>
<path d="M404.044 213.876C403.14 214.843 401.722 214.875 400.737 213.952C399.751 213.029 399.69 211.612 400.594 210.646C401.497 209.679 402.915 209.647 403.9 210.57C404.886 211.493 404.835 213.031 404.044 213.876Z" fill="#CBD0FF"/>
</g>
</g>
<path d="M95.2112 95.044L92.1211 80.8736C96.8692 64.8153 90.6472 47.0907 75.7628 37.7597C57.6275 26.3594 33.4432 31.6793 21.7641 49.6594C10.0839 67.6411 15.3325 91.4721 33.4699 102.874L33.4699 102.874L33.4709 102.874C48.3521 112.203 67.2918 110.302 80.0366 99.4032L94.4187 96.2627L95.4288 96.0421L95.2112 95.044Z" fill="#E9EBFF" stroke="black" stroke-width="2.04394"/>
<path d="M2.83984 43.9196L14.2964 44.1792" stroke="#BCBFE3" stroke-width="3.04167" stroke-linecap="round"/>
<path d="M26.2461 20.5144L28.0964 28.3862" stroke="#BCBFE3" stroke-width="3.04167" stroke-linecap="round"/>
<path d="M5.92188 22.7539L19.5592 34.9207" stroke="#BCBFE3" stroke-width="3.04167" stroke-linecap="round"/>
<path d="M95.769 23.197L98.563 27.664C99.4805 29.1308 98.9507 30.9876 97.7915 32.2432C94.9852 35.2829 94.4023 39.7911 96.6766 43.4272C98.9506 47.0628 103.389 48.7188 107.53 47.8125C109.24 47.4382 111.206 47.8774 112.124 49.3442L114.918 53.8118C115.347 54.497 115.124 55.3759 114.422 55.775L76.424 77.3578L74.2409 73.8674L71.7579 75.2778L73.941 78.7682L55.8833 89.025C55.1806 89.4241 54.2636 89.1922 53.8351 88.5071L49.3795 81.3837L39.1417 65.0157L34.6861 57.8923C34.2575 57.2071 34.4798 56.3282 35.1824 55.9291L53.2402 45.6722L55.4229 49.162L57.9059 47.7516L55.7232 44.2619L93.7208 22.6791C94.4235 22.28 95.3405 22.5119 95.769 23.197Z" fill="black"/>
<path d="M97.077 22.4845L98.9708 25.5122C99.8882 26.979 99.3578 28.8359 98.2024 30.0948C95.4271 33.1189 94.8596 37.6011 97.1239 41.2212C99.3879 44.8408 103.795 46.4973 107.907 45.6096C109.618 45.24 111.585 45.6788 112.502 47.1456L114.396 50.1739C115.314 51.6406 114.838 53.5224 113.333 54.3769L77.033 74.9957L74.8561 71.5153L72.3886 72.9169L74.5655 76.3972L56.6286 86.5854C55.926 86.9845 55.009 86.7527 54.5804 86.0675L50.1398 78.968L39.9314 62.647L35.4908 55.5475C35.0622 54.8624 35.2845 53.9835 35.9871 53.5843L53.924 43.3962L56.1005 46.8759L58.568 45.4744L56.3914 41.9946L92.692 21.3758C94.1963 20.5214 96.1596 21.0177 97.077 22.4845Z" fill="#F6F7FA" stroke="black" stroke-width="1.09641"/>
<path d="M77.7889 40.2212C76.0676 41.0823 74.6584 42.4212 73.7395 44.0685C72.8206 45.7158 72.4333 47.5976 72.6265 49.476C72.8197 51.3543 73.5848 53.1448 74.825 54.621C76.0652 56.0972 77.7248 57.1928 79.5939 57.7694C81.4631 58.3459 83.4578 58.3774 85.3259 57.8599C87.194 57.3424 88.8516 56.2992 90.089 54.8621C91.3263 53.425 92.088 51.6587 92.2776 49.7864C92.4672 47.9141 92.0762 46.02 91.1541 44.3436C89.915 42.0981 87.8122 40.4031 85.3068 39.6303C82.8013 38.8575 80.0978 39.07 77.7889 40.2212ZM87.0236 50.7333C87.161 50.983 87.1909 51.2736 87.1067 51.5409C87.0225 51.8082 86.8311 52.0305 86.5746 52.1588L85.801 52.5458L86.0922 53.0751C86.2177 53.2953 86.2618 53.5492 86.2169 53.7942C86.1721 54.0392 86.0411 54.2604 85.8459 54.4208C85.7208 54.519 85.5741 54.5888 85.4165 54.625C85.2588 54.6612 85.0942 54.663 84.9345 54.6302C84.7749 54.5975 84.6241 54.5309 84.4933 54.4355C84.3624 54.34 84.2547 54.218 84.1779 54.0784L83.8671 53.5133L83.0935 53.9003C82.9501 53.9717 82.7915 54.0112 82.6292 54.0159C82.4668 54.0206 82.3048 53.9905 82.1549 53.9276C82.0049 53.8647 81.8707 53.7707 81.7619 53.6524C81.6532 53.534 81.5726 53.3943 81.5261 53.2432C81.4568 53.0019 81.4755 52.7462 81.579 52.5195C81.6825 52.2927 81.8644 52.1086 82.0942 51.9983L84.5716 50.759L83.7428 49.2521L81.2286 50.5099C80.9721 50.6381 80.6716 50.662 80.3931 50.5761C80.1146 50.4902 79.8809 50.3016 79.7435 50.0518L77.8787 46.6614C77.7413 46.4116 77.7114 46.1211 77.7956 45.8537C77.8798 45.5864 78.0712 45.3641 78.3276 45.2358L79.1012 44.8488L78.8101 44.3196C78.6837 44.0995 78.6392 43.8454 78.6841 43.6002C78.7289 43.355 78.8604 43.1337 79.0563 42.9738C79.1815 42.8756 79.3282 42.8058 79.4858 42.7696C79.6434 42.7334 79.8081 42.7316 79.9677 42.7644C80.1274 42.7972 80.2781 42.8637 80.409 42.9592C80.5399 43.0546 80.6476 43.1766 80.7244 43.3163L81.0352 43.8814L81.8088 43.4944C81.9522 43.4226 82.1109 43.3828 82.2734 43.3778C82.4359 43.3729 82.5981 43.4029 82.7483 43.4657C82.8985 43.5285 83.033 43.6225 83.1419 43.7409C83.2508 43.8594 83.3315 43.9992 83.3781 44.1504C83.4466 44.3922 83.4274 44.6479 83.3236 44.8747C83.2199 45.1015 83.0379 45.2857 82.8081 45.3963L80.3307 46.6357L81.1595 48.1425L83.6737 46.8848C83.9302 46.7565 84.2307 46.7327 84.5092 46.8186C84.7877 46.9045 85.0213 47.0931 85.1587 47.3428L87.0236 50.7333Z" fill="#515BB2"/>
<path d="M72.8399 72.3076L58.4609 49.4083" stroke="#BCBFE3" stroke-width="2.7134" stroke-dasharray="6.03 3.01"/>
<g clip-path="url(#clip1_4224_27723)">
<path d="M210.55 241.596C220.102 245.036 231.848 256.96 230.935 285.263C230.34 303.7 214.753 322.372 230.628 354.153C241.134 375.187 236.274 394.22 282.246 454.075L268.02 472.576C268.02 472.576 217.192 397.558 204.14 384.099C200.786 380.639 197.324 373.49 194.031 364.776C193.821 368.283 193.433 371.91 192.838 375.653C185.562 421.389 203.613 502.455 203.613 502.455L182.394 503.088C185.055 496.267 146.4 354.472 145.106 347.374C141.891 329.742 139.094 277.131 145.588 239.333L210.55 241.596Z" fill="#F5B896" stroke="black" stroke-width="2.02073" stroke-linecap="round" stroke-linejoin="round"/>
<path d="M140.593 364.801C140.825 311.768 139.642 263.49 145.166 230.046C145.166 230.046 157.976 227.462 177.356 229.781C196.737 232.101 203.248 221.469 203.248 221.469C226.703 241.144 237.165 295.7 246.98 320.479C254.849 340.343 265.341 353.69 278.122 374.396C259.872 373.652 240.904 381.315 233.701 385.239C226.874 391.237 208.236 403.151 188.294 402.821C168.353 402.49 153.414 407.807 140.374 414.709C144.473 387.908 140.491 388.027 140.593 364.801Z" fill="#DFE1F2" stroke="black" stroke-width="2.02073" stroke-linecap="round" stroke-linejoin="round"/>
<path d="M200.998 99.7729L178.191 105.337C167.977 109.319 141.426 134.467 118.883 164.492C116.147 173.806 131.569 186.622 135.197 197.819C139.189 210.139 131.58 221.144 131.764 238.258C148.185 232.23 177.997 235.099 189.221 240.296C198.2 244.453 219.187 241.036 228.558 238.807C218.289 233.388 214.813 197.121 214.576 175.142C220.916 171.351 236.84 168.52 247.446 165.746C240.368 140.722 212.827 111.699 200.998 99.7729Z" fill="#585193"/>
<path d="M214.576 175.142C220.916 171.351 236.84 168.52 247.446 165.746C240.368 140.722 212.827 111.699 200.998 99.7729L178.191 105.337C167.977 109.319 141.426 134.467 118.883 164.492C116.147 173.806 131.569 186.622 135.197 197.819C139.189 210.139 131.58 221.144 131.764 238.258C148.185 232.23 177.997 235.099 189.221 240.296C198.2 244.453 219.187 241.036 228.558 238.807C218.289 233.388 214.813 197.121 214.576 175.142ZM214.576 175.142L203.998 180.574C203.815 163.574 203.659 149.202 201.354 132.741" stroke="black" stroke-width="2.00208" stroke-linecap="round" stroke-linejoin="round"/>
<path d="M165.349 133.677C148.06 157.795 132.288 221.057 131.233 238.263" stroke="black" stroke-width="2.02073" stroke-linecap="round" stroke-linejoin="round"/>
<path d="M247.984 166.364C236.916 173.402 219.51 188.904 204.541 181.657C218.29 176.073 246.227 165.198 247.984 166.364Z" fill="black" stroke="black" stroke-width="2.02073" stroke-linecap="round" stroke-linejoin="round"/>
<path d="M180.818 187.222L219.488 222.435L217.24 211.291L180.818 187.222Z" fill="black" stroke="black" stroke-width="2.02073" stroke-linecap="round" stroke-linejoin="round"/>
<circle cx="3.19063" cy="3.19063" r="3.19063" transform="matrix(-0.999942 0.0108015 0.0108015 0.999942 145.436 161.014)" fill="black"/>
<path d="M90.1997 216.918C82.0743 203.179 111.372 174.854 125.206 159.105L124.234 167.625L141.325 174.353L153.701 201.326C147.601 207.01 137.478 203.55 128.773 207.569C111.931 215.344 94.0823 219.33 90.1997 216.918Z" fill="#D98F6F" stroke="black" stroke-width="2.02073" stroke-linecap="round" stroke-linejoin="round"/>
<path d="M143.041 185.503C148.15 185.873 146.992 190.246 145.775 192.387C141.132 195.84 135.367 197.108 133.064 197.31M143.041 185.503C144.2 183.363 141.813 180.092 137.152 181.844C132.491 183.596 129.549 183.699 128.661 183.531C127.385 183.512 123.787 175.416 122.148 171.37C118.777 174.384 120.142 182.559 121.246 186.27C121.246 186.27 116.942 195.342 103.683 198.691M143.041 185.503C140.956 189.354 134.415 191.091 131.406 191.478" stroke="black" stroke-width="2.02073" stroke-linecap="round" stroke-linejoin="round"/>
<path d="M167.797 163.431C171.833 163.388 166.279 170.561 172.12 169.766C187.762 167.639 211.147 184.666 217.344 185.28C219.561 185.499 217.28 182.233 213.517 175.685C222.405 171.335 239.479 166.706 244.26 166.3C248.577 172.104 266.234 217.675 253.547 224.726C234.491 232.909 186.243 182.275 178.011 187.237C169.029 192.652 164.703 186.016 166.816 184.699C164.163 185.248 162.505 179.443 170.99 177.208C157.405 179.987 149.393 182.775 148.295 179.596C148.255 175.874 162.068 174.661 165.1 173.565C161.893 172.004 164.606 163.466 167.797 163.431Z" fill="#D98F6F"/>
<path d="M244.594 197.141L217.344 185.28M217.344 185.28C219.561 185.499 217.28 182.233 213.517 175.685C222.405 171.335 239.479 166.706 244.26 166.3C248.577 172.104 266.234 217.675 253.547 224.726C234.491 232.909 186.243 182.275 178.011 187.237C169.029 192.652 164.703 186.016 166.816 184.699M217.344 185.28C211.147 184.666 187.762 167.639 172.12 169.766C166.279 170.561 171.833 163.388 167.797 163.431C164.606 163.466 161.893 172.004 165.1 173.565C162.068 174.661 148.255 175.874 148.295 179.596C149.393 182.775 157.405 179.987 170.99 177.208C162.505 179.443 164.163 185.248 166.816 184.699M166.816 184.699C168.409 184.422 173.18 183.035 173.18 183.035C173.18 183.035 169.09 184.674 166.816 184.699Z" stroke="black" stroke-width="2.02073" stroke-linecap="round" stroke-linejoin="round"/>
<path d="M162.094 205.433L148.797 155.947C148.355 154.302 146.7 153.295 145.036 153.658L120.517 159.007C118.733 159.397 117.638 161.201 118.118 162.963L120.325 171.061C120.462 171.566 120.924 171.915 121.447 171.909C121.881 171.904 122.28 172.143 122.48 172.528L128.058 183.221C128.51 184.087 129.341 184.692 130.316 184.621C131.722 184.518 133.915 184.121 136.808 183.074C137.111 182.965 137.396 182.8 137.657 182.61C139.459 181.297 140.64 181.107 141.414 181.511C143.582 182.643 146.446 186.236 146.898 188.64C147.081 189.617 146.971 190.729 146.5 191.7C146.087 192.55 145.718 193.459 145.558 194.391C144.682 199.496 137.612 203.917 132.139 205.971C130.46 206.6 129.373 208.36 129.807 210.099L130.387 212.427C130.803 214.093 132.463 215.131 134.143 214.776L159.672 209.383C161.463 209.005 162.569 207.201 162.094 205.433Z" fill="#B4BAF8" stroke="black" stroke-width="2.02073" stroke-linecap="round" stroke-linejoin="round"/>
<circle cx="3.19063" cy="3.19063" r="3.19063" transform="matrix(-0.982081 -0.188459 -0.188459 0.982081 145.811 160.138)" fill="black"/>
<path d="M147.405 75.1322L146.962 34.1882L196.946 33.6483C197.072 45.3466 196.062 50.321 197.153 52.7909C201.197 49.7337 209.732 45.6353 211.521 53.6993C213.31 61.7634 207.907 66.517 203.304 67.0985C200.099 85.4271 200.292 97.2511 202.467 101.659C198.305 110.213 183.401 108.956 176.469 107.258L176.325 93.9647C147.833 95.1234 147.508 84.7035 147.405 75.1322Z" fill="#D98F6F" stroke="black" stroke-width="2.02073" stroke-linecap="round" stroke-linejoin="round"/>
<path d="M176.857 93.9589C180.581 93.7493 186.689 92.5754 188.307 89.491C188.375 89.3392 188.44 89.1911 188.503 89.0469C188.448 89.1991 188.383 89.3471 188.307 89.491C185.786 95.1497 180.3 105.856 176.995 106.721L176.857 93.9589Z" fill="black" stroke="black" stroke-width="2.02073" stroke-linecap="round" stroke-linejoin="round"/>
<path d="M202.238 66.788C202.387 80.6055 201.785 74.2381 201.866 81.6824C249.925 50.6485 217.98 -1.98456 181.905 6.1723C171.419 3.62656 148.505 5.89493 140.74 35.3343C142.982 41.0134 151.083 44.2274 160.531 45.9562C161.235 46.085 165.455 26.4381 166.171 26.5508C165.8 41.4453 166.739 46.6493 166.39 46.7569C179.923 48.5778 193.168 47.6864 197.236 46.9632L197.288 51.7489C201.34 49.4006 208.404 46.8319 210.613 54.466C212.823 62.1002 206.653 65.3222 202.238 66.788Z" fill="black" stroke="black" stroke-width="2.02073" stroke-linecap="round" stroke-linejoin="round"/>
<path d="M251.318 81.1482C237.263 60.028 265.231 13.2068 218.828 27.2663C232.453 29.5841 228.651 50.4684 228.692 54.2708C228.972 80.1512 240.335 81.2668 251.318 81.1482Z" fill="black" stroke="black" stroke-width="1.59531"/>
<path d="M173.371 3.81532C181.879 3.72342 201.628 10.4235 204.163 48.1543" stroke="white" stroke-width="2.65886" stroke-linecap="round" stroke-linejoin="round"/>
<path d="M155.666 56.8362C155.929 55.6765 156.586 54.3802 158.385 54.5265C160.061 54.6628 160.958 56.0854 160.821 57.7615" stroke="black" stroke-width="1.59531" stroke-linecap="round" stroke-linejoin="round"/>
<path d="M173.869 57.3836C174.079 56.2132 174.676 54.8883 176.48 54.9526C178.16 55.0125 179.12 56.3929 179.061 58.0734" stroke="black" stroke-width="1.59531" stroke-linecap="round" stroke-linejoin="round"/>
<path d="M171.199 61.8394C170.313 59.0394 167.325 57.4881 164.525 58.3743C161.725 59.2606 160.174 62.2489 161.06 65.0489C161.585 66.7076 162.848 67.928 164.372 68.4632" stroke="black" stroke-width="1.59531" stroke-linecap="round" stroke-linejoin="round"/>
<path d="M174.364 46.4285C174.34 44.2216 180.183 43.6266 181.825 47.8634" stroke="black" stroke-width="1.59531" stroke-linecap="round" stroke-linejoin="round"/>
<path d="M160.538 46.5779C160.514 44.371 154.122 43.3764 153.11 48.1736" stroke="black" stroke-width="1.59531" stroke-linecap="round" stroke-linejoin="round"/>
<path d="M173.242 83.1252C179.833 81.2234 182.455 72.229 182.942 67.9695C177.558 72.8639 164.694 77.7659 155.377 73.3146C156.596 81.8188 166.652 85.0269 173.242 83.1252Z" fill="black" stroke="black" stroke-width="1.59531" stroke-linecap="round" stroke-linejoin="round"/>
<path d="M170.127 80.1794C166.707 78.0357 163.461 79.8375 162.265 81.0064C171.271 85.3823 175.717 80.4426 176.815 77.4258C174.222 75.4829 171.276 78.452 170.127 80.1794Z" fill="white"/>
<path d="M179.518 129.786C171.573 130.303 176.742 114.078 177.288 103.28L202.593 99.7557C202.265 115.409 189.45 129.139 179.518 129.786Z" fill="#D98F6F" stroke="black" stroke-width="2.02073" stroke-linecap="round" stroke-linejoin="round"/>
<path d="M201.547 101.362L201.518 98.7037L183.462 101.026L177.138 106.412L201.547 101.362Z" fill="#D98F6F"/>
<path d="M177.162 108.539C177.162 108.539 183.97 102.357 184.508 99.4193C185.047 96.4818 177.105 103.263 177.105 103.263L177.162 108.539Z" fill="black"/>
<circle cx="1.06354" cy="1.06354" r="1.06354" transform="matrix(-0.999942 0.0108015 0.0108015 0.999942 169.028 44.8109)" fill="black"/>
</g>
</g>
<defs>
<clipPath id="clip0_4224_27723">
<rect width="400" height="230" fill="white"/>
</clipPath>
<clipPath id="clip1_4224_27723">
<rect width="221.016" height="319.246" fill="white" transform="translate(78 -25.125)"/>
</clipPath>
</defs>
</svg>
