<svg width="162" height="162" viewBox="0 0 162 162" fill="none" xmlns="http://www.w3.org/2000/svg">
<mask id="mask0" mask-type="alpha" maskUnits="userSpaceOnUse" x="0" y="0" width="162" height="162">
<path d="M56.4799 0H105.52C121.784 0 129.913 0 138.668 2.7675C148.226 6.24645 155.754 13.7741 159.232 23.3321C162 32.0854 162 40.2178 162 56.4799V105.52C162 121.784 162 129.913 159.232 138.668C155.754 148.226 148.226 155.754 138.668 159.231C129.913 162 121.784 162 105.52 162H56.4799C40.2165 162 32.0854 162 23.3321 159.231C13.7741 155.754 6.24645 148.226 2.7675 138.668C0 129.913 0 121.784 0 105.52V56.4799C0 40.2178 0 32.0854 2.7675 23.3321C6.24645 13.7741 13.7741 6.24645 23.3321 2.7675C32.0854 0 40.2165 0 56.4799 0Z" fill="white"/>
</mask>
<g mask="url(#mask0)">
<path d="M56.4799 0H105.52C121.784 0 129.913 0 138.668 2.7675C148.226 6.24645 155.754 13.7741 159.232 23.3321C162 32.0854 162 40.2178 162 56.4799V105.52C162 121.784 162 129.913 159.232 138.668C155.754 148.226 148.226 155.754 138.668 159.231C129.913 162 121.784 162 105.52 162H56.4799C40.2165 162 32.0854 162 23.3321 159.231C13.7741 155.754 6.24645 148.226 2.7675 138.668C0 129.913 0 121.784 0 105.52V56.4799C0 40.2178 0 32.0854 2.7675 23.3321C6.24645 13.7741 13.7741 6.24645 23.3321 2.7675C32.0854 0 40.2165 0 56.4799 0Z" fill="#F4333D"/>
<mask id="mask1" mask-type="alpha" maskUnits="userSpaceOnUse" x="66" y="40" width="30" height="81">
<path d="M66 40H95.6189V120.979H66V40Z" fill="white"/>
</mask>
<g mask="url(#mask1)">
<path fill-rule="evenodd" clip-rule="evenodd" d="M66 120.979H95.6189L89.317 71.9821C84.5906 73.4 77.0284 73.4 72.3018 71.9821L66 120.979ZM80.8095 67.4131C73.0896 67.4131 67.1028 61.4263 67.1028 53.7066C67.1028 45.9868 73.0896 40 80.8095 40C88.5292 40 94.5161 45.9868 94.5161 53.7066C94.5161 61.4263 88.5292 67.4131 80.8095 67.4131Z" fill="white"/>
</g>
</g>
</svg>
