<svg fill="none" xmlns="http://www.w3.org/2000/svg" viewBox="0 0 128 24">
  <path d="M99.1844 10.0616c-.2794.5785-.5579 1.1571-.8355 1.7356-.4983 1.0371-.9993 2.0742-1.4898 3.1152-.0353.097-.103.1789-.1916.2319-.0885.053-.1927.0739-.2948.0591-.4402-.0172-.8817-.0224-1.3219 0-.275.0159-.3886-.1243-.4917-.3386-.713-1.493-1.429-2.9856-2.1481-4.4778-.0508-.118-.1355-.2184-.2433-.2883-.0313.1097-.0569.2209-.0766.3333-.1613 1.3281-.3204 2.6567-.4772 3.9857-.0688.5781-.1468 1.1548-.201 1.7329-.0264.2831-.1322.3968-.4336.381-.6265-.0252-1.2544-.0239-1.881 0-.3094.0105-.4111-.0821-.3688-.3903.1136-.8148.2075-1.6323.3093-2.4498.1626-1.3163.3225-2.6338.4878-3.95131.1533-1.23022.3119-2.45912.4666-3.68935.0331-.26456.0595-.52913.082-.78575.0198-.22224.1163-.32939.3582-.32277.5288.01323 1.0575.01058 1.5863 0 .0919-.00938.1841.01364.2609.06508.0767.05144.1331.12808.1594.21668.9968 2.14826 2.0005 4.29344 3.0113 6.43552.0763.1383.1625.2709.2578.3968.1059-.128.2001-.2652.2816-.41.9861-2.128 1.9661-4.25951 2.9399-6.39454.0337-.10292.1024-.19071.1943-.24802.0918-.05731.2008-.08049.308-.06549.5287.02116 1.0571.01323 1.5861 0 .043-.00755.088-.00532.13.00654.042.01185.081.03302.114.06195.033.02893.059.06489.076.10523.018.04034.026.08404.024.12788.139 1.17731.28 2.35374.423 3.52929.156 1.28406.312 2.56896.469 3.85466.147 1.1968.297 2.3943.45 3.5928.029.2302-.048.3122-.285.3082-.682-.0119-1.364-.0132-2.046 0-.243 0-.333-.0899-.357-.3161-.1016-.9379-.2127-1.8745-.3211-2.8123-.1136-.9921-.2286-1.9838-.345-2.9751-.0132-.1164-.0462-.2315-.07-.3479l-.0965-.0119Zm-44.902.6627c0-1.7898.0066-3.5809 0-5.37068 0-.31218.082-.41668.4045-.41272 1.4541.0172 2.9082-.01852 4.3623.0172 2.0912.05159 3.6339 1.01064 4.5235 2.91021.5671 1.21302.7007 2.51339.5288 3.83619-.1533 1.2143-.5631 2.3202-1.4012 3.2396-.4336.4793-.9608.8646-1.5489 1.1321-.5882.2676-1.2249.4117-1.8709.4235-1.5717.0609-3.1474.0185-4.7205.0304-.2644 0-.2736-.1402-.2723-.336-.0018-1.8237-.0035-3.647-.0053-5.4698Zm3.8335-3.58619-.0066.05556h-.8909c-.2235 0-.3186.08863-.3173.31218v6.42625c0 .2447.1044.3334.3371.3307.5724-.0079 1.1461 0 1.7185-.0106.9253-.0277 1.5982-.4815 2.0238-1.2685.7442-1.3745.7429-2.8005.1322-4.21852-.2842-.66141-.7509-1.217-1.4726-1.41939-.4931-.13889-1.0192-.14419-1.5308-.20768h.0066Z" fill="#2F3476"/>
  <path d="M126.756 6.71487c-.608.50928-1.174.99608-1.761 1.4551-.062.04894-.285-.02249-.375-.10318-.565-.53553-1.3-.85374-2.077-.8982-1.213-.06349-2.149.4458-2.854 1.40484-1.322 1.80437-.653 4.58487 1.364 5.52017 1.218.5648 2.411.3968 3.48-.3969.264-.1944.425-.5423.583-.8453.132-.2553-.011-.3823-.293-.3796-.836 0-1.673-.0106-2.511.0079-.319.008-.426-.0913-.41-.4101.025-.459.015-.9259 0-1.3823 0-.2236.071-.3122.304-.3109h5.481c.191 0 .316.0424.313.2725-.024 1.6205-.366 3.1378-1.465 4.3971-.858.9815-1.971 1.4855-3.253 1.6178-1.669.1733-3.237-.1323-4.572-1.1905-1.819-1.4393-2.601-3.3402-2.248-5.63658.369-2.40621 1.745-4.06635 4.063-4.80051 2.179-.68919 4.193-.25663 5.907 1.32282.114.09524.197.21033.324.35584Z" fill="#757DBD"/>
  <path d="M31.4009 16.5037V4.9793c.0999-.01531.2005-.02547.3014-.03043 1.5744 0 3.1488-.01323 4.7219.00926 1.8625.02646 3.2175 1.25271 3.5691 3.0835.3397 1.80565-.8421 3.69067-2.3794 4.15367-.2644.078-.2115.2209-.0859.3968.7578 1.0653 1.5126 2.132 2.2644 3.1999.1493.213.2947.4286.4811.7011-.1665.0146-.2643.0318-.3727.0318-.7707 0-1.5414-.008-2.3107 0-.1024.0071-.2047-.0157-.2944-.0657-.0897-.0501-.1628-.1251-.2106-.2161-.7623-1.1782-1.5316-2.3537-2.308-3.5266-.078-.1244-.1967-.2179-.3358-.2646-.3503-.0767-.4296 0-.4296.3625 0 1.1204-.0093 2.2408 0 3.3599 0 .2765-.0859.3612-.3583.3532-.6371-.0172-1.2756 0-1.9141 0-.1057-.0026-.2128-.0158-.3384-.0238Zm3.7397-6.1273v-.0132c.2855 0 .5724.0132.8579 0 .3668-.0146.7153-.1637.9793-.41882.264-.25517.425-.5986.4523-.96487.0846-.75136-.4058-1.55432-1.1328-1.67205-.6769-.10847-1.3761-.08598-2.0662-.09392-.0727 0-.2088.18652-.2115.28838-.0172.86644 0 1.73421-.0119 2.60068 0 .1958.0807.2804.275.2778.2855-.008.5724-.004.8579-.004Zm8.2278.3492c0-1.78978.0066-3.57955-.0066-5.37065 0-.30954.078-.41669.4032-.41405 2.2129.01235 4.4253.01235 6.6373 0 .3172 0 .4269.09525.4137.41272-.0224.49342-.0185.98815 0 1.48156.008.27515-.0965.36378-.3661.36113-1.3312-.00926-2.6637 0-3.9948 0-.4693 0-.472 0-.4733.48416 0 .52912.0132 1.05825 0 1.58738-.0106.30028.1005.40875.3966.40611 1.1117-.00926 2.2234 0 3.3352 0 .497 0 .497 0 .497.51064 0 .4828-.0119.9669 0 1.4551.0092.2764-.0952.3611-.3649.3585-1.1434-.0106-2.2882 0-3.4369 0-.4111 0-.4323.0238-.4349.4259v1.3506c0 .4974.0066.504.4904.504h4.0292c.4732 0 .4732 0 .4732.4775 0 .4776-.0172.926 0 1.3837.0159.3148-.0833.414-.4058.4114-2.0146-.0132-4.0279 0-6.0424 0-.2644 0-.5288-.0159-.7932 0-.2868.0225-.3807-.0728-.378-.3677.0264-1.8335.0211-3.6457.0211-5.458Zm24.0739.0238c0-1.8017.0079-3.60206 0-5.40374 0-.32277.1004-.40611.4137-.40479 2.212.01235 4.424.01235 6.6359 0 .2935 0 .4191.07408.4046.38759-.0212.48283-.0252.96698 0 1.4551.0198.35055-.1243.4233-.4429.42066-1.31-.01455-2.62 0-3.93 0-.4547 0-.4614.00793-.4627.46034v1.58738c0 .39685.0265.42463.4376.42595 1.1329 0 2.267.00926 3.3999 0 .3014 0 .4098.08731.3966.39681-.0225.504-.0212 1.0107 0 1.5147.0132.3122-.0833.4219-.4072.418-1.1223-.0172-2.2472-.008-3.3682 0-.4428 0-.456.0172-.4574.4696 0 .4722.0146.9458 0 1.4167-.0132.3096.1137.3969.4059.3969 1.3761-.0093 2.7522 0 4.1283 0 .4613 0 .4626 0 .464.4537 0 .4828-.0119.967 0 1.4551.0092.2646-.0609.3691-.3464.3677-2.3124-.0088-4.624-.0088-6.9347 0-.2644 0-.3344-.0926-.3331-.3452 0-1.848-.0039-3.6603-.0039-5.4725Zm10.9153-.0092V5.33648c0-.29763.0793-.39684.3873-.39684 2.2235.01234 4.4469.01234 6.6703 0 .3041 0 .4072.09524.3966.39684-.0198.49341-.0185.98815 0 1.48156.0119.29234-.0978.38097-.3833.37833-1.3219-.01191-2.6438 0-3.9658 0-.4877 0-.4877 0-.489.50135 0 .52913.0119 1.05825 0 1.58738-.0093.28573.1004.39685.3833.38891 1.1448-.00794 2.2895 0 3.4369-.00926.3054 0 .4363.07276.4204.40345-.0251.5291-.0172 1.0583 0 1.5808.0079.2645-.0925.3426-.3463.3413-1.1448-.0093-2.2896 0-3.437 0-.4296 0-.4494.0225-.4508.4444v1.3506c0 .4749.0119.4868.4759.4868h4.0279c.4891 0 .4891 0 .4891.4948 0 .4947-.0066.9881 0 1.4829 0 .2116-.0714.291-.2869.291-2.3442-.0053-4.6883-.0053-7.0325 0-.2789 0-.2908-.1429-.2908-.3519-.0009-1.8193-.0027-3.6356-.0053-5.4487Z" fill="#2F3476"/>
  <path d="M112.171 8.27971h-.925c-.225 0-.348-.0344-.397-.30558-.111-.64156-.644-.97888-1.41-.9511-.676.02381-1.177.42991-1.267 1.0265-.067.4405.073.7937.529.9908.59.26456 1.212.44976 1.826.65479.91.30425 1.805.63628 2.498 1.34268.693.7064.925 1.5993.793 2.5755-.213 1.7065-1.466 2.6179-2.884 2.9327-1.199.2646-2.386.25-3.516-.2817-1.131-.5318-1.842-1.4234-1.983-2.7092-.031-.2817.058-.3968.358-.3968.627.0172 1.254.0066 1.881 0 .177 0 .331.0185.379.2301.115.4987.459.7871.918.9511.499.1886 1.052.1777 1.544-.0304.203-.0739.38-.2071.508-.3826.127-.1754.199-.3849.206-.6016.017-.2116-.035-.423-.147-.6031-.113-.1801-.28-.3193-.477-.3969-.484-.2068-.979-.3891-1.481-.5463-.802-.2646-1.62-.4776-2.325-.9802-1.949-1.38768-1.662-4.44472.607-5.55589 1.404-.68522 2.844-.71168 4.26-.03307 1.126.53971 1.684 1.49346 1.824 2.71178.029.25663-.066.36113-.329.3479-.329-.00132-.659.01059-.99.01059Z" fill="#757DBD"/>
  <g clip-path="url(#a)">
    <path d="M19.1503 7.4e-7H2.12781C1.56348 7.4e-7 1.02226.223108.623222.620244.22418 1.01738 0 1.55601 0 2.11765v6.49411c0 .18722.0747285.36676.207742.49914.133014.13238.313417.20675.501527.20675H1.5134c.70927 0 1.29885.54882 1.32279 1.22385.00697.1706-.02086.341-.08181.5006-.06095.1597-.15375.3055-.27282.4285-.11879.1234-.26155.2214-.41961.2881-.15805.0668-.32809.1008-.49978.1001H.711044c-.18811 0-.368516.0744-.501529.2068-.1330143.1323-.20774009.3119-.20774009.4991v6.4941c0 .5617.22417709 1.1003.62321909 1.4974.399046.3972.940256.6203 1.504586.6203H13.1587l1.0107 1.3597c.0124.0167.0266.0335.0408.0494l.0133.015c.532.5912 1.251 1.3994 2.6154 1.3994.4552-.0024.9048-.0995 1.32-.2852s.7867-.4559 1.0907-.793c.474-.5172.7241-1.1994.6959-1.8989.394-.1575.7315-.4287.9693-.7788.2378-.35.3649-.7628.3651-1.1853V2.11765c0-.27824-.0551-.55376-.1622-.8108-.107-.25704-.2639-.490566-.4617-.687231-.1978-.196665-.4325-.352615-.6909-.458932-.2584-.1063184-.5353-.16091813-.8148-.16068626Z" fill="#303778"/>
    <path d="M15.2891 21.6705c.5089.5691.8591.9177 1.548.9177.2544-.0011.5057-.0552.7379-.1588.2321-.1037.4398-.2546.6097-.443.1242-.1309.2185-.287.2764-.4576.058-.1705.0784-.3515.0596-.5306-.156-1.2441-1.2687-7.2935-1.9718-11.07266-.5809 1.05476-1.4359 1.93476-2.4756 2.54806-1.0396.6132-2.2258.9373-3.4343.9381-.0157.0009-.0314.0009-.047 0-.2243-.015-.5222.0212-.67029.2753-.14008.2382-.10373.585.08869.8877l5.2787 7.0958Z" fill="#868AC3"/>
    <path d="M1.41852 13.2706v5.7883c0 .1872.07473.3667.20774.4991.13301.1324.31342.2067.50153.2067h9.98031l-3.24757-4.3685-.02128-.0309c-.50535-.7614-.56032-1.6764-.14363-2.3903.38567-.66 1.11799-1.0244 1.96468-.975.7012-.0007 1.3953-.1403 2.0418-.4107.6464-.2704 1.2323-.6662 1.7235-1.1643.4967-.49791.8882-1.08974 1.1514-1.74059.2633-.65085.393-1.34756.3815-2.04908-.0381-2.88-2.4638-5.22353-5.4081-5.22353H2.12779c-.18811 0-.36852.07437-.50153.20675-.13301.13238-.20774.31192-.20774.49914v5.78823h.09486c1.46021 0 2.68991 1.15941 2.74044 2.58528.0144.3604-.04498.72-.17453 1.0569s-.32656.6441-.57907.9028c-.25065.2603-.55186.4673-.88533.6082-.33347.1409-.69224.2129-1.05452.2115h-.14185Z" fill="#DFE1F2"/>
  </g>
  <defs>
    <clipPath id="a">
      <path fill="#fff" d="M0 0h21.2781v24H0z"/>
    </clipPath>
  </defs>
</svg>